<?xml version="1.0" standalone="no"?>
<!DOCTYPE svg PUBLIC "-//W3C//DTD SVG 20010904//EN"
 "http://www.w3.org/TR/2001/REC-SVG-20010904/DTD/svg10.dtd">
<svg version="1.0" xmlns="http://www.w3.org/2000/svg"
 width="896.000000pt" height="887.000000pt" viewBox="0 0 896.000000 887.000000"
 preserveAspectRatio="xMidYMid meet">

<g transform="translate(0.000000,887.000000) scale(0.100000,-0.100000)"
fill="#000000" stroke="none">
<path d="M187 8703 c-4 -3 -7 -183 -7 -400 l0 -393 24 -10 c27 -10 731 -14
770 -4 l26 6 0 404 0 404 -403 0 c-222 0 -407 -3 -410 -7z m690 -120 c5 -10 8
-25 7 -33 -1 -8 -2 -133 -3 -278 l-1 -262 -288 2 -287 3 -3 280 c-1 154 0 285
3 292 3 10 68 13 284 13 257 0 281 -1 288 -17z"/>
<path d="M420 8305 l0 -175 173 2 172 3 0 170 0 170 -172 3 -173 2 0 -175z"/>
<path d="M1120 8535 l0 -175 55 0 55 0 0 44 c0 70 5 76 66 76 l54 0 0 60 0 60
115 0 115 0 0 55 0 55 -115 0 -115 0 0 -55 c0 -37 -4 -55 -12 -56 -50 -4 -92
1 -99 13 -5 7 -9 32 -9 56 l0 42 -55 0 -55 0 0 -175z"/>
<path d="M1939 8705 c0 -3 -1 -18 -1 -35 0 -73 -3 -70 57 -70 l55 0 0 55 0 55
-55 0 c-30 0 -55 -2 -56 -5z"/>
<path d="M2290 8655 l0 -55 115 0 115 0 0 55 0 55 -115 0 -115 0 0 -55z"/>
<path d="M3100 8655 l0 -55 60 0 60 0 0 55 0 55 -60 0 -60 0 0 -55z"/>
<path d="M3340 8655 l0 -55 55 0 54 0 3 -57 3 -58 55 0 55 0 0 55 0 55 -57 3
-58 3 0 54 0 55 -55 0 -55 0 0 -55z"/>
<path d="M3690 8481 l0 -230 53 -3 52 -3 5 -115 5 -115 58 -3 57 -3 0 -54 0
-55 -32 -2 c-18 0 -40 -2 -48 -3 -28 -3 -40 17 -40 66 l0 49 -55 0 -54 0 -3
58 -3 57 -55 5 -55 5 -3 113 -3 113 -57 -3 -57 -3 -3 -52 -3 -53 -55 0 -54 0
0 55 0 55 -60 0 -60 0 0 60 0 60 -115 0 -114 0 -3 58 -3 57 -55 0 -55 0 -3
-57 -3 -58 61 0 61 0 -3 -57 -3 -58 -57 -3 -58 -3 0 -54 0 -55 48 0 c66 0 74
-8 70 -66 l-3 -49 -173 -3 -173 -2 3 57 3 58 53 3 52 3 0 115 0 114 -230 0
-230 0 0 -47 c0 -67 -8 -75 -66 -71 l-49 3 -5 55 -5 55 -115 0 -115 0 2 -50
c0 -27 1 -53 2 -57 1 -5 26 -8 56 -8 l55 0 0 -55 0 -55 175 0 175 0 0 55 0 55
60 0 60 0 0 -115 0 -114 -57 -3 -58 -3 -3 -57 -3 -58 -54 0 -54 0 -3 -52 c-3
-50 -5 -53 -33 -58 -16 -3 -42 -4 -58 -2 -26 4 -27 7 -27 58 l0 54 -60 0 -59
0 -3 58 -3 57 -110 0 -110 0 -3 -110 c-1 -60 -7 -112 -11 -115 -5 -3 -32 -3
-60 -2 l-51 4 0 54 0 55 -57 -3 -58 -3 -3 -44 c-2 -24 2 -49 8 -55 6 -6 32
-11 58 -11 l47 0 5 -55 5 -55 57 -3 57 -3 3 58 3 58 48 1 c26 1 51 4 55 8 4 4
7 29 7 54 l1 47 57 3 57 3 0 -56 0 -55 -32 -2 c-18 0 -45 0 -59 1 -25 2 -25 0
-25 -56 l1 -58 58 -3 57 -3 0 -59 0 -60 -115 0 -115 0 0 -230 c0 -126 -3 -231
-7 -231 -5 -1 -28 -3 -53 -4 -25 -1 -48 -3 -52 -4 -5 0 -8 -26 -8 -56 l0 -55
-60 0 -61 0 2 -32 c5 -88 4 -88 -56 -88 l-54 0 -3 58 -3 57 -57 3 -58 3 0 114
0 115 -60 0 -59 0 0 -100 c0 -56 2 -107 6 -115 3 -11 21 -15 59 -15 l53 0 3
-57 3 -58 58 -3 57 -3 0 -115 0 -115 -57 3 -58 3 -3 53 -3 52 -115 0 -114 0 0
-55 0 -55 55 0 c37 0 55 -4 56 -12 1 -7 2 -33 3 -58 l1 -45 115 0 115 0 3 58
3 57 54 0 c53 0 55 1 56 28 3 82 -1 77 61 80 l57 3 3 -53 3 -53 58 -3 58 -3
-3 -117 -3 -117 -57 -3 -58 -3 0 61 0 61 -57 -3 -58 -3 0 -55 0 -55 58 -3 57
-3 0 -54 0 -55 -173 -2 -172 -3 -3 -57 -3 -58 -59 0 -60 0 0 60 0 60 -55 0
-55 0 0 55 0 55 55 0 55 0 0 60 0 60 -55 0 -55 0 0 -60 0 -60 -60 0 -60 0 0
60 0 60 -115 0 -114 0 -3 -57 -3 -58 -115 -5 -115 -5 -3 -52 -3 -52 -52 -3
-52 -3 -3 -57 -3 -58 56 0 56 0 -3 -57 -3 -58 -52 -3 -53 -3 0 -54 0 -54 -57
-3 -58 -3 -5 -55 -5 -55 -55 -5 -55 -5 0 -55 0 -55 172 -3 173 -2 0 -115 0
-115 -115 0 -114 0 -3 58 -3 57 -55 0 -55 0 0 -55 0 -55 57 -3 57 -3 3 -57 3
-57 55 -5 55 -5 3 -112 3 -113 114 0 115 0 0 -60 0 -59 -57 -3 -58 -3 -3 -112
-3 -113 -114 0 -114 0 -3 -57 -3 -58 -55 -5 -55 -5 -3 -43 c-5 -69 6 -75 117
-69 51 3 100 3 107 0 11 -4 14 -32 14 -119 l0 -114 55 0 55 0 0 -55 c0 -59 -2
-57 65 -57 19 0 40 0 45 1 6 1 10 26 10 56 l0 55 175 0 175 0 0 -55 c0 -30 -3
-55 -7 -55 -5 0 -51 -2 -103 -4 -52 -2 -101 -4 -107 -5 -10 -1 -13 -42 -13
-171 0 -93 3 -170 8 -171 41 -4 164 -5 189 -2 33 5 33 6 33 59 l0 53 58 3 57
3 3 58 3 57 53 0 c61 0 66 6 60 68 -2 26 1 42 9 44 7 3 59 4 117 4 l105 -1 0
-55 0 -55 -117 -3 -117 -3 0 -222 c0 -122 0 -228 0 -234 -1 -9 -19 -13 -56
-13 l-54 0 -3 58 -3 57 -115 0 -115 0 -3 -57 -3 -58 -54 0 -54 0 -3 58 -3 57
-170 0 -170 0 -3 -57 -3 -57 -117 -3 -117 -3 -3 -49 c-4 -58 4 -66 71 -66 l47
0 0 -55 0 -54 -57 -3 -58 -3 0 -55 0 -55 55 0 55 0 3 58 3 58 57 -3 57 -3 3
-112 c3 -112 2 -113 -20 -114 -13 -1 -29 -1 -37 1 -7 1 -24 -1 -38 -5 -23 -5
-24 -7 -21 -118 l3 -112 58 -3 57 -3 0 -114 0 -115 -60 0 -60 0 0 55 0 55 -60
0 -60 0 2 -287 3 -288 58 -3 57 -3 -2 -232 -3 -232 -55 -5 -55 -5 0 -225 0
-225 118 -3 118 -3 -3 58 -3 58 -37 -3 c-80 -7 -78 -11 -78 179 l0 169 60 0
60 0 0 -175 0 -175 55 0 54 0 3 -112 3 -113 55 -5 55 -5 5 -55 5 -55 55 0 55
0 0 115 0 115 -57 3 -58 3 0 54 0 55 60 0 60 0 0 -55 0 -55 115 0 115 0 0 55
0 54 -57 3 -58 3 0 55 0 55 58 3 57 3 0 59 0 60 114 0 115 0 3 53 3 52 58 3
57 3 0 -115 0 -115 -57 -3 -58 -3 -1 -45 c-1 -25 -2 -51 -3 -57 -1 -9 -19 -13
-56 -13 l-55 0 0 -54 0 -55 53 -3 52 -3 5 -55 5 -55 57 -3 57 -3 3 58 3 58 55
0 55 0 3 -117 3 -118 -175 0 -175 0 -3 58 -3 57 -109 3 c-71 2 -112 -1 -116
-8 -6 -9 -6 -68 -1 -102 1 -5 53 -8 116 -8 l115 0 0 -55 0 -54 113 -3 112 -3
5 -55 5 -55 55 -5 55 -5 0 -55 0 -55 -173 -3 -172 -2 0 -175 0 -175 55 0 c63
0 58 -11 55 123 -1 51 3 93 9 101 13 15 307 22 330 7 8 -5 14 -29 15 -57 l1
-49 118 -3 117 -3 0 115 0 115 -57 3 -58 3 0 55 0 55 58 3 57 3 0 114 0 115
115 0 115 0 0 -55 0 -55 -44 0 c-72 0 -71 2 -71 -123 l0 -112 57 -3 57 -3 3
58 3 58 57 3 57 3 3 57 3 57 58 3 58 3 -3 52 -3 52 -117 3 -118 3 0 59 0 60
60 0 60 0 0 60 0 59 58 3 57 3 3 52 3 52 112 3 112 3 5 55 5 55 55 5 55 5 3
58 3 58 52 -3 52 -3 3 -58 3 -58 117 3 117 3 3 113 3 112 54 0 54 0 3 -112 3
-113 58 -3 57 -3 0 116 0 115 60 0 60 0 2 -172 3 -173 110 0 110 0 0 55 0 55
-55 5 -55 5 -3 113 -3 112 -54 0 -55 0 0 60 0 60 55 0 55 0 0 60 0 60 -115 0
-115 0 0 55 0 54 -57 3 -58 3 0 115 0 115 58 3 57 3 0 114 0 115 60 0 60 0 0
-235 0 -235 115 0 115 0 0 -55 0 -56 58 3 57 3 3 53 3 52 55 0 54 0 0 60 0 60
-55 0 -55 0 0 60 0 60 115 0 115 0 0 55 0 54 58 3 57 3 0 55 0 55 -58 3 -58 3
3 57 3 57 55 5 55 5 3 52 3 53 175 0 174 0 0 -55 0 -55 115 0 115 0 0 -60 0
-59 -57 -3 -58 -3 -1 -55 -1 -55 -56 -3 -57 -3 0 -114 0 -115 -60 0 -60 0 0
-60 0 -60 -107 0 c-60 0 -112 4 -118 8 -5 4 -10 30 -10 57 l0 50 -57 3 -58 3
0 -176 0 -175 -175 0 -175 0 0 -115 0 -116 58 3 57 3 3 53 3 52 230 0 229 0 0
-55 0 -55 -49 0 c-28 0 -53 -5 -57 -12 -4 -6 -6 -34 -5 -60 l2 -49 -58 3 -58
3 -5 55 -5 55 -55 0 -55 0 0 -115 0 -115 58 -3 57 -3 0 -54 c0 -59 -1 -58 64
-55 47 2 56 -9 56 -72 l0 -48 55 0 55 0 0 -60 0 -60 -54 0 -55 0 -3 -52 -3
-53 -115 -5 -115 -5 -3 -118 -3 -118 -112 3 -112 3 0 115 0 115 55 1 55 1 3
56 3 56 112 3 112 3 3 117 3 118 -115 0 -115 0 -3 -117 -3 -118 -55 0 -55 0
-3 57 -3 58 -114 0 -114 0 -3 58 -3 57 -55 0 -55 0 -3 -57 -3 -58 -114 0 -115
0 0 -115 0 -114 -57 -3 -58 -3 -3 -58 -3 -57 -59 0 -60 0 0 55 c0 50 2 55 26
61 14 4 41 4 60 1 l34 -6 0 59 0 59 -57 3 -58 3 0 55 0 55 57 3 57 3 3 57 3
57 58 3 57 3 0 54 0 55 -120 0 -120 0 0 -55 0 -55 -55 0 -54 0 -3 -57 -3 -58
-57 -3 -57 -3 -3 58 -3 58 -55 0 -55 0 -5 -175 -5 -175 -50 0 -50 0 -3 -117
-3 -118 -59 0 -60 0 0 -55 0 -54 -112 -3 -113 -3 -6 -45 c-3 -25 -4 -50 -2
-57 3 -7 28 -13 56 -15 l52 -3 3 -57 3 -58 -236 0 -235 0 0 60 0 60 -55 0 -55
0 0 -60 0 -60 -60 0 -59 0 -3 -57 -3 -58 -58 -3 -58 -3 3 -52 3 -52 350 0 350
0 1 35 c3 72 0 69 57 72 l52 3 3 58 3 57 59 0 60 0 0 -115 0 -115 233 2 232 3
5 55 c3 30 8 54 13 53 4 -2 27 -3 52 -3 l45 0 0 -55 0 -55 60 0 60 0 0 55 c0
60 2 58 -72 56 l-48 -2 0 61 0 60 -55 0 -55 0 -2 172 -3 173 -57 3 -58 3 0 59
0 60 115 0 114 0 3 -57 3 -58 58 -3 57 -3 0 -114 0 -115 60 0 60 0 0 -60 0
-60 55 0 54 0 3 -58 c3 -57 3 -57 37 -60 19 -2 44 -1 57 2 22 6 24 12 24 62
l0 55 58 -3 57 -3 3 -112 3 -113 54 0 55 0 0 175 0 175 -55 0 -56 0 3 58 3 57
110 0 110 0 3 -57 3 -57 57 -3 57 -3 0 -55 0 -55 -58 -3 -58 -3 3 -57 3 -57
55 -5 55 -5 3 -52 3 -53 290 0 289 0 0 54 0 54 50 4 c28 1 55 2 60 0 6 -2 10
-28 10 -58 l0 -54 54 0 55 0 3 52 3 53 58 3 57 3 0 -56 0 -56 58 3 57 3 3 53
3 52 115 0 114 0 0 -55 0 -55 115 0 c85 0 115 3 116 13 1 6 3 26 4 42 1 17 3
36 4 43 1 8 19 12 55 12 l55 0 3 -52 3 -53 173 -3 172 -2 0 114 0 115 -57 3
-57 3 0 108 c-1 90 1 110 15 117 8 5 113 9 232 9 l216 0 3 -117 3 -117 58 -3
57 -3 0 -114 0 -115 290 0 291 0 -3 57 -3 57 -48 -3 c-51 -3 -57 3 -62 62 -2
18 -3 38 -4 45 -1 8 -19 12 -56 12 l-54 0 -3 -57 -3 -58 -104 -3 c-65 -2 -108
1 -115 8 -6 6 -9 40 -8 81 2 38 1 87 -3 109 l-7 40 -54 0 -55 0 3 58 3 57 110
0 110 0 5 -55 5 -55 172 -3 172 -2 3 -58 3 -57 58 -3 57 -3 0 -114 0 -115 115
0 115 0 0 55 0 55 -39 0 c-71 0 -71 -1 -71 126 l0 114 173 -2 172 -3 0 -55 0
-55 -58 -3 -58 -3 3 -57 c3 -62 -3 -58 86 -61 l32 -1 0 -55 0 -55 55 0 55 0 0
55 0 55 -55 0 -55 0 0 60 0 60 55 0 54 0 3 -57 3 -58 58 -3 57 -3 0 -55 0 -55
58 3 57 3 3 173 2 172 115 0 115 0 0 54 c0 40 4 55 16 60 9 3 87 6 174 6 l159
0 3 -57 3 -58 58 -3 57 -3 0 -59 0 -59 -57 -3 -58 -3 -3 -49 c-4 -58 4 -66 71
-66 l47 0 0 -55 0 -55 175 0 175 0 0 55 c0 37 -4 55 -12 56 -7 0 -33 1 -58 2
l-45 2 -3 57 -3 57 58 3 58 3 3 172 2 173 -60 0 -60 0 0 60 0 59 58 3 57 3 0
230 0 230 -55 0 -55 0 -3 -58 -3 -57 -54 0 c-49 0 -55 -2 -61 -24 -3 -13 -4
-38 -2 -57 3 -34 3 -34 61 -37 l57 -3 0 -114 0 -115 -60 0 -59 0 -3 58 -3 57
-112 3 -113 3 0 114 0 114 58 3 57 3 3 58 3 57 54 0 c59 0 58 -2 55 67 l-1 42
118 3 118 3 0 115 0 115 -57 3 -58 3 0 54 0 54 58 3 57 3 3 172 2 172 -57 3
-58 3 -3 57 -3 57 58 3 58 3 0 55 0 55 -172 3 -173 2 0 55 0 55 55 0 55 0 0
60 0 60 60 0 59 0 3 -58 3 -57 55 0 55 0 3 58 3 57 -60 0 -60 0 -3 57 -3 58
-55 0 c-37 0 -55 -4 -56 -12 -1 -7 -2 -33 -3 -58 l-1 -45 -55 0 -55 0 0 60 0
60 55 0 54 0 3 56 3 56 115 1 115 2 0 115 0 115 -58 3 -58 3 3 57 3 57 50 2
c28 1 53 2 58 2 4 1 7 78 7 171 l0 170 -42 1 c-24 1 -51 1 -60 0 -15 -2 -18 7
-18 58 l0 60 58 3 57 3 3 288 2 287 -27 2 c-16 0 -37 2 -48 3 -11 1 -26 3 -32
4 -9 1 -13 19 -13 56 l0 54 58 3 57 3 0 55 0 55 -57 3 -58 3 0 54 c0 37 4 56
13 57 6 0 17 2 22 3 6 2 27 3 48 4 l37 1 -2 173 -3 172 -57 3 -58 3 0 54 0 54
58 3 57 3 3 173 2 172 -60 0 -60 0 0 60 0 59 -57 3 -58 3 -3 58 -3 57 121 0
120 0 -2 348 -3 347 -57 3 -58 3 0 55 0 55 -57 -3 -58 -3 0 -50 0 -50 58 -3
58 -3 -3 -117 -3 -117 -112 -3 -112 -3 -3 118 -3 118 -230 0 -230 0 -3 -57 -3
-58 -234 0 -235 0 0 60 0 60 175 0 175 0 0 55 0 54 58 3 57 3 3 58 3 57 -61 0
-61 0 3 58 3 57 115 0 115 0 3 -57 3 -58 54 0 54 0 3 -57 3 -58 115 0 115 0 0
55 0 55 -117 3 -118 3 0 234 0 235 -115 0 -115 0 0 55 c0 30 -3 56 -7 56 -5 1
-55 3 -113 4 l-105 2 -3 117 -3 116 55 0 55 0 3 -57 3 -58 58 -3 57 -3 0 -54
c0 -37 4 -55 13 -55 6 -1 73 -1 147 -1 74 0 147 -3 163 -6 25 -5 27 -8 27 -59
l0 -54 60 0 60 0 0 -60 0 -60 54 0 54 0 3 38 c8 76 4 82 -56 82 l-54 0 -3 113
-3 112 -172 3 -173 2 0 60 0 60 230 0 229 0 3 -57 3 -58 58 -3 57 -3 0 -54 c0
-60 7 -66 80 -62 l35 2 0 55 0 55 -58 3 -58 3 3 57 3 57 58 3 58 3 -3 57 -3
57 -109 2 c-59 0 -112 5 -118 11 -5 5 -8 29 -6 53 l3 44 115 5 115 5 0 55 0
55 -170 0 -170 0 -5 -55 -5 -55 -57 -3 -58 -3 0 -54 c0 -37 -4 -55 -12 -55 -7
-1 -58 -2 -113 -3 l-100 -2 -3 -57 -3 -58 -120 0 -120 0 3 58 3 57 55 1 55 1
3 56 3 57 114 0 115 0 0 60 0 60 -169 0 c-145 0 -170 2 -175 16 -3 9 -6 60 -6
115 l0 99 -55 0 -55 0 0 -54 c0 -52 -1 -54 -30 -58 -16 -3 -43 -3 -60 0 l-30
4 0 114 0 114 115 0 116 0 -3 58 -3 57 -52 3 -53 3 0 55 0 55 -117 -3 -118 -3
-3 -52 -3 -52 58 -3 58 -3 3 -57 3 -58 -115 0 -115 0 -3 58 -3 57 -232 3 -233
2 0 55 0 54 58 3 57 3 0 55 0 55 -57 3 -58 3 0 -61 0 -60 -60 0 -61 0 3 -112
3 -113 115 -5 115 -5 0 -115 0 -114 -25 1 c-14 0 -40 1 -57 2 l-33 1 0 55 0
55 -60 0 -60 0 0 -54 0 -54 -37 -4 c-52 -6 -70 0 -77 25 -3 12 -5 110 -5 217
1 107 1 201 0 208 -1 8 -19 12 -56 12 l-55 0 0 -290 0 -290 -115 0 c-63 0
-115 3 -115 8 -1 4 -3 31 -5 59 -3 52 -3 53 21 47 13 -3 40 -3 59 0 l36 7 -3
112 -3 112 -112 3 -113 3 0 59 0 60 115 0 115 0 0 55 0 55 -55 0 c-30 0 -56 5
-56 10 -1 6 -1 17 -1 25 0 8 0 31 1 50 l1 35 173 2 172 3 0 55 0 55 35 2 c19
0 45 1 58 2 20 1 22 6 22 56 l0 55 -55 0 -55 0 0 -55 0 -55 -235 0 -235 0 0
-175 0 -174 -57 -3 -58 -3 -3 -57 -3 -58 -53 0 -53 0 -7 46 c-8 61 4 74 65 74
l49 0 0 55 0 55 -55 0 c-60 0 -55 -7 -59 80 l-1 35 -57 3 -58 3 0 -115 c0 -67
-4 -116 -10 -118 -5 -1 -33 -1 -60 0 l-50 4 2 171 3 172 113 3 c119 3 114 0
114 57 0 59 23 55 -292 55 l-290 0 0 -55 0 -55 -55 0 c-30 0 -55 -3 -56 -7 0
-5 -2 -53 -3 -108 -2 -55 -4 -106 -5 -112 -1 -9 -19 -13 -56 -13 l-54 0 -3 58
-3 57 -57 3 -57 3 -3 57 -3 57 -40 2 c-22 1 -48 2 -57 2 -15 1 -18 11 -18 56
l0 55 -55 0 -55 0 0 -55 0 -55 -60 0 -60 0 0 -60 0 -61 -57 3 -58 3 -1 55 -1
55 -174 0 -174 0 -3 -171 -2 -172 -33 -3 c-68 -8 -76 -3 -79 54 l-3 52 -115 5
-115 5 0 115 0 115 58 2 57 3 0 -61 0 -60 58 3 57 3 0 55 0 55 -57 3 -58 3 0
54 0 55 -115 0 -115 0 0 -229z m1165 59 l0 -55 57 -3 57 -3 3 -57 3 -57 58 -3
57 -3 0 -114 0 -115 55 0 55 0 1 38 c1 20 1 42 0 48 -2 22 28 35 71 32 l43 -3
3 -171 c2 -165 2 -172 -18 -177 -19 -5 -81 1 -89 8 -2 2 -4 25 -5 52 l-1 48
-57 3 -58 3 0 -116 0 -115 55 0 55 0 0 -60 0 -59 -112 -3 -113 -3 -3 -112 -3
-113 175 0 175 0 3 58 3 57 104 3 c57 1 108 -1 114 -7 7 -7 13 -163 8 -218 -1
-9 -19 -13 -56 -13 l-56 0 3 -57 3 -57 46 2 c26 2 50 -1 54 -7 3 -6 7 -34 9
-61 l2 -50 -58 0 -58 0 0 -175 0 -175 54 0 c65 0 66 3 63 135 l-2 90 57 3 57
3 3 57 3 57 113 3 c101 2 112 1 113 -15 1 -10 3 -27 4 -38 1 -11 2 -30 3 -42
2 -21 7 -23 57 -23 l55 0 0 60 0 60 -61 0 -61 0 7 59 6 58 -103 1 c-57 0 -111
1 -121 1 -16 1 -17 17 -15 229 l3 227 55 0 55 0 3 -112 3 -113 54 0 c45 0 55
3 56 18 0 9 1 60 2 112 l2 95 58 3 57 3 0 59 0 60 -54 0 -54 0 -7 94 c-10 129
-7 136 61 136 l54 0 0 60 0 60 60 0 60 0 0 -60 0 -60 54 0 c58 0 66 -8 66 -72
0 -35 -18 -44 -74 -40 l-46 4 0 54 0 54 -60 0 -60 0 0 -115 0 -114 58 -3 57
-3 3 -57 3 -58 232 -2 232 -3 1 -48 c1 -26 4 -50 6 -53 3 -2 27 -6 54 -7 l49
-2 5 -175 5 -175 45 -1 c25 0 51 -1 58 -2 10 -2 12 -29 10 -114 l-3 -113 -55
-5 -55 -5 -3 -112 -3 -113 61 0 60 0 0 55 0 54 113 3 112 3 3 58 3 57 -56 0
-55 0 0 115 c0 112 -1 115 -22 116 -26 2 -79 6 -90 8 -5 1 -8 26 -8 56 l0 56
58 -3 57 -3 5 -55 5 -55 40 -1 c22 -1 45 -2 52 -3 7 0 13 -22 15 -53 l3 -53
233 -3 232 -2 0 54 c0 51 2 55 28 60 15 3 36 4 47 2 11 -3 26 -5 33 -5 8 -1
12 -19 12 -56 l0 -55 55 0 54 0 3 -57 3 -58 58 -3 58 -3 -3 -57 -3 -57 -112
-3 -112 -3 -3 -52 -3 -52 -58 -3 -58 -3 3 -57 3 -57 113 -3 112 -3 0 -59 0
-60 -172 -2 -173 -3 -3 -52 -3 -53 -54 0 -54 0 -3 -57 -3 -58 -233 -3 -233 -2
3 -58 3 -57 58 -3 57 -3 0 -54 0 -55 55 0 55 0 0 55 0 55 60 0 60 0 0 -115 0
-115 60 0 59 0 3 58 3 57 53 3 52 3 0 54 0 54 -52 3 -53 3 -3 58 -3 57 56 0
55 0 0 -60 0 -60 235 0 236 0 -3 -112 -3 -113 -55 0 -55 0 -3 58 -3 57 -174 0
-175 0 0 -60 0 -59 58 -3 57 -3 0 -55 0 -55 -50 0 c-27 0 -53 -4 -57 -10 -4
-5 -8 -31 -8 -57 l0 -48 -55 0 -54 0 -3 58 c-2 31 -6 56 -10 55 -5 -2 -136 -3
-293 -3 l-285 0 0 -55 0 -55 233 -2 232 -3 5 -115 5 -115 58 -3 57 -3 0 61 0
60 55 0 56 0 -3 -57 -3 -58 -52 -3 -53 -3 0 -55 0 -54 -235 0 -235 0 0 55 0
55 -60 0 -61 0 3 -112 3 -113 115 -5 115 -5 0 -55 0 -55 -115 -5 -115 -5 -3
-112 -3 -113 60 0 60 0 3 58 3 57 112 3 112 3 3 112 3 112 115 0 115 0 3 -57
3 -58 54 0 55 0 0 -55 0 -55 120 0 120 0 0 55 0 55 54 0 55 0 3 -52 3 -53 58
-3 57 -3 0 115 0 116 -232 2 -233 3 0 55 0 55 290 0 290 0 3 -117 3 -118 54 0
55 0 0 115 c0 112 1 115 24 121 13 3 38 4 57 2 34 -3 34 -3 37 -60 l3 -58 59
0 59 0 3 58 3 57 53 3 52 3 0 54 0 54 -112 3 -113 3 0 115 0 115 55 5 55 5 0
50 c0 50 0 50 -35 53 -78 6 -80 7 -80 67 l0 54 -57 3 -58 3 0 55 0 55 58 3 57
3 0 54 0 55 -172 2 -173 3 -3 58 -3 57 176 0 175 0 0 -60 0 -60 60 0 60 0 0
-55 0 -54 113 -3 112 -3 3 -57 3 -57 -58 -3 -58 -3 -3 -112 -3 -113 -54 0 -55
0 0 -60 0 -60 58 0 57 0 -3 -60 -3 -60 61 0 60 0 0 -175 0 -175 -60 0 -60 0 0
-55 0 -54 -112 -3 -113 -3 0 -115 0 -115 57 -3 57 -3 3 58 3 58 53 3 52 3 0
44 c0 69 5 75 66 75 l55 0 -3 -117 -3 -118 -113 -3 -113 -3 3 -57 3 -57 50 0
50 0 3 -57 3 -58 59 0 60 0 0 -60 0 -60 -55 0 c-49 0 -55 2 -61 24 -3 13 -5
32 -4 42 6 51 3 54 -55 54 l-56 0 3 -57 3 -58 53 -3 52 -3 0 -115 0 -114 -55
0 -54 0 -3 58 -3 57 -55 0 -55 0 -3 -57 -3 -58 -60 0 -60 0 2 -47 c2 -75 4
-73 -56 -73 l-55 0 0 60 0 60 55 0 55 0 0 290 0 290 -55 0 -55 0 0 -55 0 -55
-60 0 -60 0 0 -60 0 -60 -115 0 -115 0 0 -60 0 -60 55 0 55 0 0 -55 0 -55 38
-1 c20 -1 42 -2 47 -4 6 -1 16 -3 23 -3 8 -1 12 -20 12 -57 l0 -54 -57 -3 -58
-3 -1 -55 -1 -55 -56 -3 -57 -3 0 -54 c0 -66 -5 -69 -139 -64 l-96 4 0 -55 0
-55 118 -3 117 -3 0 56 c0 53 1 55 28 56 84 4 77 -1 80 62 l3 57 59 0 60 0 0
-115 0 -115 175 0 175 0 0 55 c0 59 -7 65 -70 63 -49 -1 -50 0 -50 57 l0 55
175 0 c133 0 175 -3 176 -12 1 -7 0 -29 -1 -49 -2 -44 10 -53 70 -54 l45 0 3
-57 3 -57 -58 -3 -58 -3 -5 -115 c-4 -82 -9 -115 -17 -116 -7 -1 -31 -2 -53
-2 l-40 -2 0 -55 0 -55 55 0 55 0 0 49 c0 65 5 68 103 62 15 -1 17 -16 17
-171 0 -106 -4 -170 -10 -171 -45 -6 -96 -3 -102 6 -4 5 -8 31 -8 58 l0 47
-55 0 -56 0 3 -57 3 -58 53 1 52 2 0 -43 c0 -69 5 -75 66 -75 l54 0 0 -60 0
-60 -60 0 -60 0 0 -61 0 -61 -55 4 -55 3 0 -57 0 -58 -60 0 -61 0 3 -57 3 -58
55 -5 55 -5 3 -57 3 -57 -118 -3 -118 -3 -3 -52 -3 -53 -55 0 -54 0 0 55 0 55
-60 0 -60 0 0 -115 0 -115 175 0 174 0 3 58 3 57 58 3 57 3 0 -61 0 -60 55 0
54 0 3 -57 3 -58 58 -3 57 -3 0 -54 0 -55 -48 0 c-56 0 -72 -12 -72 -56 0 -57
7 -64 66 -64 l54 0 0 -60 0 -61 -57 3 c-37 2 -58 7 -59 16 -1 6 -2 32 -3 57
l-1 45 -55 0 -56 0 3 -57 3 -58 52 -3 52 -3 3 -52 3 -52 58 -3 57 -3 0 -59 0
-59 -57 -3 -58 -3 -1 -55 -1 -55 -54 0 -54 0 -5 55 -5 55 -55 0 -55 0 -3 -57
-3 -58 61 0 61 0 -3 -52 -3 -53 -57 -3 -58 -3 0 -60 0 -59 -232 2 -233 3 -3
58 -3 57 -114 0 -115 0 0 -120 0 -119 58 -3 57 -3 0 -52 c0 -29 -3 -53 -7 -53
-5 0 -30 0 -58 0 l-50 0 0 55 0 55 -60 0 -60 0 0 -230 0 -230 -274 0 c-151 0
-281 -3 -290 -6 -12 -5 -16 -20 -16 -60 l0 -54 -60 0 -59 0 -3 58 -3 57 -112
3 -113 3 0 54 0 54 57 3 57 3 2 113 c2 109 2 112 -20 118 -13 3 -38 4 -57 2
-34 -3 -34 -3 -37 -60 l-3 -58 -59 0 -60 0 0 -60 0 -61 -57 3 -58 3 1 40 c3
80 -1 75 59 75 l54 0 3 113 3 112 115 5 115 5 3 35 c6 78 5 79 -121 82 l-112
3 -3 112 -3 112 -112 3 -112 3 -3 58 -3 57 -59 0 -59 0 -3 -57 c-3 -58 -3 -58
-37 -61 -19 -2 -44 -1 -56 2 -20 5 -22 11 -20 53 1 27 3 51 4 56 0 4 26 7 56
7 l55 0 0 60 0 60 -54 0 c-40 0 -55 -4 -60 -16 -3 -9 -3 -20 0 -26 3 -5 3 -25
0 -44 -7 -34 -7 -34 -61 -34 l-55 0 0 -60 0 -60 59 0 59 0 -2 -52 -1 -53 175
-5 175 -5 0 -55 -1 -55 -407 -3 -407 -2 0 60 0 60 -115 0 c-85 0 -115 3 -116
13 0 10 0 106 1 425 0 22 2 22 115 22 l115 0 0 -115 0 -115 55 0 c49 0 55 2
61 24 3 13 5 30 4 37 -8 54 -2 60 53 57 l52 -3 5 -55 5 -55 58 -3 57 -3 0 115
0 115 -57 3 -58 3 -3 57 -3 58 -114 0 -114 0 -3 57 -3 58 -57 3 -58 3 0 -61 0
-61 -57 3 -56 3 -1 55 -1 55 58 3 57 3 0 54 0 55 -60 0 -59 0 2 58 3 57 54 5
55 5 3 58 3 57 -173 -2 -173 -3 0 -55 0 -55 55 -5 55 -5 3 -57 3 -58 54 0 c30
0 55 -3 56 -7 1 -5 2 -29 3 -56 l2 -47 -58 0 -58 0 0 55 0 55 -114 0 c-128 0
-126 -1 -126 76 l0 44 -55 0 -55 0 0 115 0 114 113 3 112 3 3 58 3 57 -116 0
-115 0 0 60 0 60 -60 0 -60 0 0 55 0 55 60 0 60 0 0 60 0 60 59 0 60 0 -3 -60
-3 -60 58 0 59 0 0 -55 0 -55 60 0 60 0 -2 172 -3 173 -55 0 -55 0 -3 -58 -3
-58 -57 3 -57 3 -2 105 c-2 110 5 132 41 129 70 -6 75 -3 78 54 l3 52 55 5 55
5 0 55 0 55 -115 0 -115 0 0 -55 0 -55 -57 -3 -57 -3 -3 -56 -3 -56 -111 2
c-125 2 -124 3 -124 -75 l0 -44 -55 0 -55 0 0 55 c0 54 0 54 35 61 19 3 44 4
55 1 18 -5 20 0 20 54 l0 59 -55 0 -55 0 0 60 0 60 115 0 115 0 0 115 0 115
-115 0 -116 0 3 58 3 57 113 3 112 3 0 114 0 115 -60 0 -59 0 -3 -57 -3 -58
-50 0 -50 0 -3 -57 -3 -57 -57 -3 -57 -3 -3 -57 -3 -57 -57 -3 -57 -3 -3 -112
-3 -113 -54 0 -55 0 0 55 0 55 -108 0 c-71 0 -112 4 -120 12 -7 7 -12 34 -12
60 l0 48 -55 0 -54 0 -3 -57 -3 -58 -39 -1 c-70 -2 -76 2 -76 62 l0 53 -57 3
-58 3 -3 95 c-4 146 -12 137 120 136 l113 -1 3 118 3 117 -60 0 -60 0 -3 -57
-3 -58 -112 -3 -113 -3 0 -54 c0 -60 3 -57 -75 -59 l-40 -1 -3 -57 -3 -57 58
-3 58 -3 0 -115 0 -115 -55 0 -55 0 -3 118 -3 117 -114 0 -114 0 -3 113 -3
112 -57 3 -57 3 -3 -58 -3 -58 -110 0 -110 0 -3 -117 -3 -118 231 0 230 0 0
-54 c0 -60 -6 -66 -71 -66 l-39 0 0 -230 0 -230 -120 0 -120 0 0 115 0 115
-115 0 -115 0 0 -115 0 -114 58 -3 57 -3 0 -55 0 -55 -57 -3 -57 -3 -3 -57 -3
-57 -173 -3 -172 -2 0 -115 0 -115 115 0 114 0 3 58 3 57 58 3 57 3 0 54 0 55
33 1 c88 3 82 -2 85 62 l3 57 54 0 55 0 0 -115 0 -115 60 0 60 0 0 115 0 116
58 -3 57 -3 3 -57 3 -58 54 0 54 0 3 58 3 57 58 3 57 3 0 -61 0 -60 60 0 60 0
0 -55 0 -55 55 0 54 0 3 112 3 113 115 5 115 5 0 55 0 55 -58 3 -57 3 2 172 3
172 55 0 55 0 3 -112 3 -112 52 -3 52 -3 5 -55 5 -55 57 -3 57 -3 3 58 3 58
90 3 c132 4 135 3 135 -63 l0 -54 -52 -3 -53 -3 -3 -118 -3 -118 -57 3 -57 3
-3 58 -3 58 -57 -3 -57 -3 -5 -55 -5 -55 -52 -3 -52 -3 -3 -52 -3 -52 -117 -3
-118 -3 0 -59 0 -60 235 0 235 0 0 -60 0 -60 -232 2 -233 3 -3 58 -3 57 -54 0
-55 0 0 60 0 60 -60 0 -60 0 0 55 0 55 -60 0 -60 0 0 -55 0 -55 -55 0 -54 0
-3 -58 -3 -57 -57 -3 -58 -3 0 -59 0 -59 58 -3 57 -3 0 -50 c0 -44 -3 -50 -24
-55 -14 -3 -40 -4 -58 -2 -33 4 -33 5 -33 58 l0 53 -57 3 -58 3 -3 57 -3 58
-54 0 -55 0 0 -175 0 -175 173 -2 172 -3 0 -55 0 -55 -57 -3 -58 -3 0 -54 0
-55 173 -2 172 -3 3 -117 3 -118 -61 0 -60 0 0 60 0 60 -115 0 -114 0 -3 -57
-3 -58 -113 -3 -113 -3 3 118 3 118 53 3 52 3 0 55 0 54 -55 0 -55 0 0 60 0
59 -57 3 -58 3 -5 55 -5 55 -57 3 -58 3 0 54 0 55 -55 0 -55 0 0 -115 0 -115
55 0 55 0 0 -115 0 -114 58 -3 57 -3 0 -115 0 -115 -112 -3 -112 -3 -3 -112
-3 -112 -57 -3 -58 -3 0 -114 0 -115 -60 0 -60 0 0 -60 0 -60 -115 0 -115 0 0
-60 0 -59 -57 -3 -58 -3 -3 -52 -3 -53 -95 -1 c-51 -1 -102 -2 -111 -3 -15 -1
-19 9 -21 57 l-3 57 56 0 c58 0 59 1 55 52 -3 58 7 68 66 68 l54 0 0 61 0 60
-115 -3 -115 -3 0 57 0 57 -57 3 -58 3 -3 58 -3 57 176 0 175 0 0 -115 0 -115
175 0 175 0 0 55 0 55 -49 0 c-58 0 -64 7 -65 70 l-1 45 -57 3 -57 3 -3 57 -3
57 -58 3 -57 3 0 54 0 55 -175 0 -175 0 0 60 0 59 -57 3 -58 3 -3 58 -3 59 33
-2 c89 -5 88 -6 88 55 l0 55 -61 0 -61 0 4 -52 3 -53 -117 -3 -118 -3 0 -59 0
-59 58 -3 57 -3 0 -55 0 -55 -57 -3 -58 -3 0 -54 0 -55 -61 0 -61 0 3 -37 c5
-83 5 -83 -56 -83 l-56 0 3 58 3 57 53 3 52 3 0 54 0 54 -52 3 -53 3 -3 58 -3
57 -59 0 -60 0 0 -175 0 -176 -57 3 -58 3 0 170 0 170 58 3 58 3 -3 57 -3 57
-55 5 -55 5 0 110 0 110 57 3 57 3 3 -58 3 -58 55 0 55 0 3 58 3 57 114 0 114
0 3 57 3 58 58 3 57 3 0 54 0 54 113 3 112 3 3 57 3 57 -58 3 -58 3 -2 45 c-1
25 -2 51 -2 58 -1 9 -31 12 -116 12 l-114 0 -3 -57 -3 -58 -112 -3 -112 -3 -3
-112 -3 -112 -233 -3 -232 -2 0 54 0 55 58 3 57 3 3 118 3 117 54 0 54 0 3
-118 3 -117 55 0 55 0 3 172 2 173 60 0 60 0 0 60 0 60 230 0 230 0 1 -30 c1
-16 3 -34 4 -40 1 -5 3 -19 4 -30 1 -17 8 -20 56 -20 l55 0 0 -115 0 -115 60
0 59 0 3 58 3 57 52 3 c47 3 53 6 54 25 1 12 2 27 4 32 1 6 3 20 3 33 2 20 7
22 57 22 l55 0 0 60 0 61 -57 -3 -58 -3 -3 -58 -3 -58 -52 3 -52 3 -5 55 -5
55 -55 5 -55 5 -3 57 -3 57 -57 3 -56 3 -2 40 c-4 68 0 73 59 72 l52 -2 5 55
5 55 58 3 58 3 -3 57 -3 57 -115 5 -115 5 -3 53 c-2 36 1 52 10 53 28 2 74 6
91 7 14 2 17 12 17 57 l0 54 58 3 57 3 5 55 5 55 52 3 c38 2 53 -1 53 -10 1
-7 2 -85 3 -173 l2 -160 58 -3 57 -3 0 55 0 55 58 3 57 3 0 115 0 115 -55 5
-55 5 -3 113 -3 112 60 0 60 0 3 -57 3 -58 48 0 c56 0 66 -12 64 -70 l-2 -40
58 -3 57 -3 0 -60 0 -60 58 3 57 3 5 55 5 55 113 3 113 3 -3 57 -3 57 -52 3
-52 3 -3 52 -3 52 -57 3 -58 3 0 -56 c0 -59 1 -57 -60 -57 -61 0 -60 -1 -60
57 l0 55 -54 0 c-34 0 -55 5 -58 13 -4 10 -3 76 1 99 0 4 79 9 174 10 l172 3
3 57 3 57 -179 0 -178 0 0 -57 1 -57 -57 -3 -58 -3 0 59 0 59 -57 -1 -58 -1
-3 -57 -3 -58 -53 0 c-40 0 -55 4 -60 16 -8 20 -8 178 0 198 5 13 25 16 120
16 l114 0 0 -55 c0 -30 3 -56 8 -56 32 -7 89 -5 98 2 7 6 12 46 12 102 0 50 1
100 1 110 1 14 11 17 56 17 l54 0 3 -57 3 -58 55 0 55 0 5 115 5 115 72 -3
c40 -2 91 -1 113 3 l40 7 0 54 0 54 -55 0 -55 0 0 60 0 60 55 0 55 0 0 -60 0
-60 60 0 60 0 0 120 0 120 -60 0 -60 0 0 230 0 230 -55 0 -54 0 -3 -112 -3
-113 -57 -3 -58 -3 0 176 0 175 -175 0 -176 0 3 -57 3 -58 50 -3 c27 -2 52 -8
56 -14 3 -5 6 -56 5 -111 l-1 -102 -232 -3 -232 -2 -3 -58 -3 -57 -57 -3 -58
-3 0 -57 0 -57 115 3 115 3 2 -43 c0 -24 1 -50 2 -58 1 -11 16 -16 58 -18 l57
-3 3 113 3 113 58 3 57 3 0 -116 0 -115 -60 0 -61 0 3 -57 3 -58 112 -3 c126
-3 125 -4 120 78 l-2 35 57 3 57 3 3 57 3 57 55 0 55 0 0 -55 0 -55 -57 -3
-57 -3 -3 -117 -3 -117 -45 -3 c-63 -4 -66 -5 -64 -47 3 -67 9 -65 -177 -65
-168 0 -169 0 -171 -22 -1 -13 -3 -32 -4 -43 -1 -11 -2 -28 -3 -38 -1 -15 -9
-18 -53 -15 l-53 3 -5 55 -5 55 -55 0 -55 0 -3 -58 -3 -58 -57 3 -57 3 -3 117
-3 117 28 -1 c15 0 43 0 61 1 l32 1 0 55 0 55 -60 0 -60 0 0 60 0 60 -55 0
-55 0 0 -60 0 -60 55 0 c30 0 55 -4 56 -10 8 -95 1 -108 -58 -106 l-48 1 -5
-115 -5 -115 -57 -3 -57 -3 -3 58 -3 58 -55 5 -55 5 -3 44 c-4 54 5 64 60 66
24 1 46 3 51 4 4 0 7 26 7 56 l0 55 -115 0 -114 0 -3 -112 -3 -113 -55 -5 -55
-5 -3 -57 -3 -58 -59 0 -60 0 0 109 c0 119 3 125 55 128 17 0 38 2 48 2 14 1
17 11 17 56 l0 54 -57 3 -58 3 -3 57 -3 57 118 3 118 3 0 55 0 55 -57 3 -58 3
0 54 0 55 175 0 175 0 0 60 0 60 -55 0 c-54 0 -54 0 -60 34 -4 18 -5 44 -3 57
3 22 8 24 58 24 l55 0 3 -57 3 -58 59 0 59 0 3 58 3 57 55 0 56 0 -1 55 0 55
58 3 57 3 0 59 0 59 -57 3 -58 3 0 55 0 55 55 0 55 0 3 -58 3 -58 57 3 57 3 3
172 2 173 -292 2 -292 3 -4 35 c-6 70 2 80 63 80 l55 0 0 55 0 55 -173 2 -172
3 0 115 0 115 58 3 57 3 0 54 0 55 115 0 115 0 0 -55 0 -54 -57 -3 -58 -3 0
-55 0 -55 173 -3 c94 -1 172 -6 173 -10 0 -4 1 -54 2 -112 l2 -105 115 -5 115
-5 3 -57 3 -58 54 0 54 0 3 -112 3 -113 57 -3 58 -3 0 230 0 230 -57 3 -58 3
0 55 0 55 175 5 175 5 3 35 c6 70 -2 80 -63 80 l-55 0 0 55 0 55 55 0 c50 0
55 2 57 23 0 12 2 27 3 32 2 6 3 22 4 38 1 26 3 27 56 27 l55 0 0 60 0 60
-115 0 -115 0 0 55 0 55 115 0 114 0 3 58 3 57 55 5 55 5 3 58 3 57 -176 0
-175 0 0 55 c0 59 -1 59 66 55 39 -2 49 12 49 70 l0 45 57 3 57 3 3 -58 3 -58
55 0 55 0 3 -57 3 -57 57 -3 57 -3 3 -94 c5 -149 12 -141 -123 -141 l-115 0 0
-55 0 -54 58 -3 57 -3 3 -57 3 -58 59 0 60 0 0 60 0 60 55 0 55 0 0 -60 0 -60
-55 0 -54 0 -3 -57 -3 -58 -58 -3 -57 -3 0 -54 0 -55 115 0 115 0 0 55 0 55
60 0 60 0 0 -55 0 -55 -60 0 -60 0 0 -175 0 -175 -55 0 -54 0 -3 -57 -3 -58
-57 -3 -57 -3 -3 -57 -3 -57 -116 0 -116 0 2 -27 c1 -16 2 -41 3 -58 l2 -29
113 -3 112 -3 3 -57 3 -58 114 0 115 0 0 60 0 60 -55 0 -55 0 0 55 0 55 55 0
55 0 0 -55 0 -55 60 0 60 0 0 115 0 115 60 0 60 0 0 115 0 115 115 0 114 0 3
118 3 117 110 0 110 0 3 -57 3 -58 -55 0 -55 0 -3 -57 -3 -58 -57 -3 -58 -3 0
-114 0 -115 -115 0 -116 0 3 -57 3 -58 173 -3 172 -2 0 -55 0 -55 -175 0 -175
0 0 -60 0 -60 55 0 55 0 0 -115 0 -115 60 0 60 0 0 55 0 55 60 0 60 0 0 -55 0
-54 113 -3 112 -3 3 -58 3 -58 57 3 57 3 5 55 5 55 113 3 112 3 0 114 0 114
58 3 57 3 0 170 0 170 -115 5 -115 5 -3 58 -3 57 -54 0 -54 0 -3 113 -3 112
-57 3 -57 3 -3 -58 -3 -58 -55 0 -55 0 0 55 0 55 58 3 57 3 0 114 0 115 -172
2 -173 3 -3 58 -3 57 116 0 115 0 0 114 0 115 -52 3 -53 3 -3 58 -3 57 -59 0
-60 0 0 -115 0 -115 -60 0 -60 0 0 -60 0 -61 -112 3 -113 3 -3 112 -3 112 -57
3 -57 3 0 115 0 115 58 3 57 3 0 174 0 175 -290 0 -290 0 -1 35 c-1 19 -2 41
-3 48 -4 25 17 37 65 37 l49 0 0 55 0 55 60 0 59 0 3 58 3 57 113 3 112 3 0
114 0 115 60 0 60 0 0 60 0 60 60 0 61 0 -3 -57 -3 -58 -58 -3 -58 -3 3 -57 3
-57 55 0 55 0 3 58 3 57 55 0 55 0 -3 -57 -3 -58 -52 2 -53 2 0 -120 0 -119
55 0 55 0 0 -115 0 -115 -55 0 -55 0 0 115 0 115 -60 0 -60 0 0 -115 0 -114
58 -3 57 -3 3 -57 3 -58 54 0 54 0 3 -57 c3 -64 -5 -58 91 -62 26 -1 27 -3 27
-56 l0 -54 58 -3 57 -3 3 -57 3 -58 54 0 54 0 3 58 3 57 58 3 57 3 0 54 c0 48
3 55 23 60 12 3 33 4 47 1 14 -2 31 -5 38 -5 9 -1 12 -16 10 -53 l-3 -53 -57
-3 -58 -3 0 -59 0 -60 173 -2 172 -3 5 -55 5 -55 170 0 170 0 3 58 3 57 -116
0 -115 0 0 114 c0 110 1 114 23 119 12 4 31 4 42 2 11 -2 25 -4 32 -4 7 -1 13
-22 15 -53 l3 -53 58 -3 57 -3 0 -60 0 -60 58 3 57 3 3 104 c3 111 -4 133 -41
125 -12 -2 -34 -2 -49 2 -26 5 -28 9 -28 59 l0 54 -57 3 -58 3 -5 115 -5 115
-50 0 -50 0 -5 -55 -5 -55 -57 -3 -57 -3 -3 -117 -3 -116 -50 -1 c-27 0 -53 4
-57 10 -4 5 -8 58 -8 118 l0 107 -55 0 -54 0 -3 -57 -3 -58 -57 -3 -57 -3 -3
-57 -3 -57 -95 0 c-134 0 -130 -2 -130 61 l0 54 55 0 54 0 3 58 3 57 118 3
118 3 -3 57 -3 57 -57 3 -58 3 0 55 0 55 58 -3 57 -3 3 -52 3 -52 52 -3 52 -3
3 -57 3 -58 59 0 59 0 3 58 3 57 58 0 57 0 0 118 0 117 -60 0 -60 0 0 115 0
115 60 0 60 0 0 -115 0 -115 230 0 229 0 3 57 3 58 55 0 55 0 5 115 5 115 115
5 114 5 -3 50 c-1 27 -5 53 -7 57 -3 5 -27 8 -55 8 l-49 0 0 55 0 54 -57 3
-58 3 -3 58 -3 58 58 -3 58 -3 3 -57 3 -58 114 0 115 0 0 60 0 60 60 0 60 0 0
60 0 61 58 -3 57 -3 0 -55z m690 50 c5 -8 8 -114 5 -213 0 -16 -10 -17 -112
-15 l-113 3 -3 104 c-1 58 -1 110 2 117 6 15 211 20 221 4z m-2325 -285 l0
-54 -111 -3 c-60 -2 -113 0 -117 4 -4 4 -6 31 -4 60 l4 53 114 -3 114 -3 0
-54z m230 -350 l0 -175 -172 2 -173 3 -3 160 c-1 87 0 165 2 172 4 10 46 13
176 13 l170 0 0 -175z m2338 -2 l2 -173 -175 0 -175 0 0 175 0 175 173 -2 172
-3 3 -172z m1522 117 l0 -60 55 0 55 0 0 -115 0 -114 58 -3 57 -3 3 -58 3 -58
57 3 57 3 3 58 3 57 54 0 55 0 0 -117 0 -118 -91 3 c-150 6 -138 21 -141 -181
l-3 -172 -45 1 c-25 1 -51 2 -58 3 -9 1 -13 13 -12 34 5 82 13 76 -112 79
l-113 3 -3 58 -3 57 -175 0 -175 0 3 58 3 57 170 0 170 0 3 -57 3 -58 114 0
114 0 3 58 3 57 55 0 55 1 3 57 3 57 -61 0 -60 0 0 -61 c0 -52 -2 -60 -16 -55
-9 3 -33 6 -55 6 l-39 0 0 55 0 54 -117 3 -118 3 -3 58 -3 57 -54 0 -55 0 0
60 0 61 53 -3 52 -3 3 105 c1 58 4 111 7 118 3 9 37 12 120 12 l115 0 0 -60z
m-4322 -117 l-3 -57 -55 -1 -55 0 -3 -57 -3 -57 58 -3 58 -3 3 -57 3 -58 55 0
55 0 -3 -57 -3 -57 -52 3 -53 2 0 -60 0 -61 -60 0 -61 0 3 58 3 57 50 1 c28 1
53 2 58 3 4 1 7 26 7 56 l0 54 -57 3 -58 3 -3 58 -3 57 -60 0 -60 0 3 58 3 57
58 0 57 -1 0 58 0 58 60 0 61 0 -3 -57z m1162 2 c0 -53 0 -54 -32 -60 -64 -10
-73 -4 -76 58 l-3 57 56 0 55 0 0 -55z m2685 -235 l0 -55 -55 0 -55 0 -3 44
c-5 67 0 72 60 69 l53 -3 0 -55z m-4437 -467 l-3 -58 -112 -1 -113 -1 0 58 0
59 115 0 116 0 -3 -57z m-930 -1050 l-3 -58 -55 0 -55 0 -3 58 -3 57 61 0 61
0 -3 -57z m-940 -235 l3 -58 -56 0 -55 0 0 61 0 60 53 -3 52 -3 3 -57z m237 2
l0 -55 -57 -3 -57 -3 -3 -57 c-3 -57 -3 -57 -37 -60 -19 -2 -45 -1 -58 3 -22
5 -24 10 -21 58 l3 52 58 3 57 3 0 53 c0 29 3 56 7 60 4 4 30 6 58 4 l50 -3 0
-55z m2450 0 l0 -55 -55 0 -55 0 -3 44 c-5 67 0 72 60 69 l53 -3 0 -55z
m-2097 -352 l-3 -173 -170 0 -170 0 -3 173 -2 172 175 0 175 0 -2 -172z m2332
-3 l0 -175 -172 2 -173 3 -3 160 c-1 87 0 165 2 172 4 10 46 13 176 13 l170 0
0 -175z m4670 0 l0 -175 -172 2 -173 3 -3 160 c-1 87 0 165 2 172 4 10 46 13
176 13 l170 0 0 -175z m-7470 -170 l0 -114 58 -3 57 -3 0 -55 0 -55 -57 -3
-58 -3 0 60 0 60 -57 3 -58 3 -3 113 -3 112 61 0 60 0 0 -115z m1400 -295 l0
-61 -57 3 -58 3 2 50 c1 28 2 53 2 58 1 4 26 7 56 7 l55 0 0 -60z m-932 -934
l3 -56 -61 0 -60 0 0 -60 0 -61 -57 3 -58 3 -3 35 c-6 70 2 80 63 80 l55 0 0
53 c0 30 2 56 4 58 3 2 29 4 58 3 l53 -2 3 -56z m-468 -641 l0 -116 -57 3 -58
3 -3 52 -3 52 -52 3 -52 3 -3 58 -3 57 116 0 115 0 0 -115z m350 61 c0 -59 -7
-66 -65 -66 -42 0 -53 15 -53 73 l0 47 59 0 59 0 0 -54z m115 -351 l0 -170
-172 -3 -173 -2 0 175 0 175 173 -2 172 -3 0 -170z m2335 0 l0 -175 -172 2
-173 3 -3 160 c-1 87 0 165 2 172 4 10 46 13 176 13 l170 0 0 -175z m468 112
l3 -58 -58 3 -58 3 -3 44 c-5 67 0 72 60 69 l53 -3 3 -58z m-3388 -347 l0 -60
60 0 61 0 -3 -57 -3 -58 -55 0 -55 0 -3 58 -3 57 -54 0 -55 0 0 53 c0 30 3 57
7 60 3 4 28 7 55 7 l48 0 0 -60z m470 -585 l0 -56 -57 3 -58 3 -3 39 c-5 60 1
66 63 66 l55 0 0 -55z m3618 -57 l-3 -113 -58 -3 -58 -3 3 -57 3 -57 173 -3
172 -2 0 -115 0 -115 -55 0 -54 0 -3 58 -3 57 -55 0 -55 0 -3 -58 -3 -58 -57
3 -57 3 0 53 c0 59 -10 67 -76 60 l-34 -3 -3 -117 -3 -118 116 0 115 0 0 -55
0 -55 60 0 60 0 0 55 0 55 55 0 54 0 3 58 3 57 115 0 115 0 0 -170 0 -170 -57
-3 -58 -3 0 -174 0 -174 58 -3 57 -3 3 -112 3 -112 -58 -3 -58 -3 -3 -57 -3
-57 58 -3 58 -3 0 -55 0 -55 -55 0 -55 0 -3 58 -3 58 -57 -3 -57 -3 -3 -57 -3
-58 -54 0 -55 0 0 -115 0 -115 -60 0 -59 0 -3 58 -3 57 -49 3 c-32 2 -52 -1
-57 -10 -5 -7 -9 -61 -9 -120 l0 -108 -115 0 -115 0 0 -61 0 -61 -57 4 -58 3
-3 57 -3 58 -54 0 -55 0 0 -47 c0 -73 -2 -74 -126 -71 l-109 3 0 115 0 115 55
0 55 0 5 -55 5 -55 58 -3 57 -3 0 105 c0 57 -3 111 -6 120 -5 12 -20 16 -60
16 l-55 0 3 112 3 113 58 3 59 3 -4 60 -3 59 58 0 57 0 0 55 0 54 118 3 117 3
3 57 3 57 -58 3 -58 3 -5 55 -5 55 -57 3 -58 3 0 54 0 54 -52 3 -53 3 -3 58
-3 57 173 -2 173 -3 5 -55 5 -55 53 -3 52 -3 0 -54 0 -54 -52 -3 -53 -3 -3
-57 -3 -58 56 0 55 0 0 -115 0 -115 -99 0 c-55 0 -106 -3 -115 -6 -12 -5 -16
-20 -16 -60 l0 -53 58 -3 57 -3 0 -55 0 -55 -55 0 -55 0 -3 58 -3 57 -114 0
-115 0 0 -60 0 -60 55 0 54 0 3 -113 3 -112 115 0 115 0 5 55 5 55 54 1 54 1
-2 99 c-3 132 -1 134 65 134 l54 0 0 54 c0 40 4 55 16 60 9 3 60 6 114 6 110
0 110 0 101 77 l-3 32 -112 3 -111 3 0 115 0 115 113 3 c79 2 112 6 112 15 1
7 2 57 3 112 l2 100 58 3 58 3 -3 57 -3 57 -112 3 -112 3 -3 -118 -3 -118 -55
0 -55 0 -3 118 -3 117 -114 0 -115 0 0 55 0 54 -57 3 -58 3 -3 57 -3 57 -57 3
-57 3 0 55 0 55 58 3 57 3 0 54 0 54 58 3 57 3 3 57 3 57 56 3 56 3 -2 113 -2
112 61 0 61 0 -3 -112z m-1050 -60 l3 -58 60 0 60 0 -3 -57 -3 -58 -57 -3 -58
-3 0 60 0 60 -57 3 -58 3 -3 44 c-5 67 0 72 60 69 l53 -3 3 -57z m-118 -1403
l0 -175 -172 2 -173 3 -3 160 c-1 87 0 165 2 172 4 10 46 13 176 13 l170 0 0
-175z m2338 3 l-3 -173 -172 -3 -173 -2 0 175 0 175 175 0 175 0 -2 -172z
m352 117 l0 -54 -57 -3 -58 -3 -3 -117 -3 -118 61 0 60 0 0 -55 0 -55 -60 0
-60 0 0 55 0 55 -54 0 c-64 0 -66 4 -66 123 0 104 8 117 70 117 l50 0 0 48 c0
27 3 52 7 55 3 4 30 7 60 7 l53 0 0 -55z m1980 -120 l0 -175 -172 2 -173 3 -3
160 c-1 87 0 165 2 172 4 10 46 13 176 13 l170 0 0 -175z m-5602 2 l3 -58 -58
3 -58 3 -3 44 c-5 67 0 72 60 69 l53 -3 3 -58z m2797 -57 l0 -115 -49 -3 c-31
-2 -52 1 -57 9 -8 13 -2 206 7 220 3 6 27 9 52 7 l47 -3 0 -115z m-2330 -60
l0 -55 -57 -3 -58 -3 0 61 0 61 58 -3 57 -3 0 -55z m4670 0 l0 -55 -55 0 -55
0 -3 44 c-5 67 0 72 60 69 l53 -3 0 -55z m817 3 l3 -58 58 -3 57 -3 0 -54 0
-55 -41 0 c-61 0 -81 -14 -79 -58 3 -63 4 -62 -55 -62 l-55 0 0 44 c0 70 -5
76 -67 76 l-54 0 3 53 3 52 55 5 55 5 3 45 c4 68 6 70 61 70 l50 0 3 -57z
m-5954 -235 l-3 -173 -57 -3 -57 -3 -3 -57 -3 -57 -50 0 -50 0 -3 58 -3 57
-60 0 -60 0 3 58 3 57 55 0 55 0 3 -57 3 -58 54 0 55 0 0 114 c0 127 0 126
-71 126 l-39 0 0 55 0 55 115 0 115 0 -2 -172z m686 56 c13 -5 16 -25 16 -120
l0 -114 -60 0 -60 0 0 60 0 60 -55 0 -55 0 0 54 c0 34 5 56 13 59 18 8 182 8
201 1z m2223 -1 c9 -3 13 -23 13 -59 l0 -54 -115 0 -115 0 0 -44 c0 -70 -5
-76 -66 -76 l-53 0 -3 -57 -3 -58 -57 -3 -58 -3 0 61 0 60 -55 0 c-64 0 -71 8
-61 75 l7 44 112 3 112 3 3 45 c5 75 -5 71 168 69 87 0 163 -3 171 -6z m2221
0 c7 -3 12 -25 12 -59 l0 -55 -117 3 -118 3 -3 44 c-5 72 -5 72 110 70 57 -1
109 -4 116 -6z m940 -175 l3 -58 -54 0 c-62 0 -67 6 -67 76 l0 45 58 -3 57 -3
3 -57z m-7008 -117 l0 -58 -52 1 -53 1 -3 58 -3 57 56 0 55 0 0 -59z m3160 -1
l0 -60 -60 0 -60 0 0 60 0 60 60 0 60 0 0 -60z m808 3 l-3 -58 -112 -3 -113
-3 0 54 c0 30 3 57 7 60 3 4 55 7 115 7 l109 0 -3 -57z m2920 0 l-3 -58 -50 0
-50 0 -3 58 -3 57 56 0 56 0 -3 -57z"/>
<path d="M4738 8423 l-3 -58 -57 -3 -58 -3 0 -54 0 -54 58 -3 57 -3 3 -117 3
-118 -60 0 -60 0 -3 58 -3 57 -55 0 -55 0 -3 -34 c-2 -19 -1 -44 2 -57 6 -22
12 -24 61 -24 l55 0 0 -115 0 -116 -57 3 -58 3 -3 113 -3 112 -54 0 -55 0 0
-175 0 -175 -60 0 -60 0 0 60 0 60 -60 0 -60 0 0 -60 0 -60 -115 0 -115 0 0
-175 0 -176 58 3 57 3 5 115 5 115 50 1 50 1 3 56 3 57 59 0 60 0 0 -55 c0
-60 4 -58 -78 -57 l-43 0 3 -57 3 -56 58 -3 57 -3 0 61 0 60 48 -1 c75 -2 72
-4 72 56 l0 56 57 -3 56 -3 1 -50 1 -50 58 -3 57 -3 0 -59 0 -60 -115 0 -116
0 3 -117 3 -118 50 0 50 0 5 55 5 55 58 3 57 3 0 -116 0 -115 -55 0 c-66 0
-67 -2 -63 -140 l3 -95 55 0 55 0 5 55 5 55 113 5 114 5 1 173 2 172 -57 0
-57 0 -3 118 -3 117 -57 3 -58 3 0 54 0 55 115 0 c103 0 115 2 116 18 0 9 1
35 2 57 l2 40 58 3 57 3 0 114 0 115 60 0 60 0 0 60 0 59 -57 3 -58 3 -5 55
-5 55 -50 3 c-27 2 -53 9 -57 15 -5 7 -8 57 -7 112 l2 100 -56 3 -56 3 -3 -58z
m112 -528 l0 -115 -55 0 -55 0 0 115 0 115 55 0 55 0 0 -115z"/>
<path d="M2400 7720 l0 -60 -115 0 -116 0 3 -56 3 -56 93 1 c50 0 101 0 112 1
18 0 20 7 20 55 l0 55 60 0 61 0 -3 58 -3 57 -57 3 -58 3 0 -61z"/>
<path d="M6020 7605 l0 -54 58 -3 57 -3 3 -169 c2 -117 -1 -172 -9 -176 -6 -4
-32 -6 -57 -5 l-47 2 -3 56 -3 57 -54 0 c-53 0 -54 -1 -60 -33 -4 -18 -1 -45
5 -61 10 -28 12 -28 60 -23 l50 6 0 -59 0 -59 58 -3 57 -3 0 -55 0 -55 -55 -5
-55 -5 -3 -57 -3 -58 -54 0 c-62 0 -71 13 -60 80 l7 40 -122 0 -121 0 3 -57 3
-58 55 -5 55 -5 0 -110 0 -110 -57 -3 -58 -3 0 61 0 60 -59 0 -60 0 2 -57 2
-58 58 -3 58 -3 -3 -57 -3 -57 -112 -3 -112 -3 -3 58 -3 58 -55 5 -55 5 -3
113 -3 112 -53 0 c-58 0 -69 -10 -61 -52 9 -47 -2 -58 -61 -58 l-54 0 0 55 0
54 -57 3 -58 3 -3 58 -3 57 176 0 175 0 0 114 c0 90 -3 115 -15 119 -7 3 -55
5 -105 4 -50 -2 -95 0 -100 3 -5 3 -10 28 -12 55 l-3 50 -57 3 -58 3 0 59 0
60 -55 0 c-49 0 -55 -2 -61 -24 -3 -13 -4 -38 -2 -57 3 -34 3 -34 61 -37 l57
-3 0 -174 0 -174 -57 -3 -58 -3 -1 -46 c0 -25 -4 -51 -8 -57 -4 -7 -29 -12
-57 -12 l-49 0 0 -55 0 -55 175 0 175 0 0 -60 0 -59 58 -3 c57 -3 57 -3 60
-37 2 -19 1 -44 -2 -57 -6 -22 -12 -24 -61 -24 l-55 0 0 -55 0 -55 -60 0 -60
0 0 55 0 55 -172 2 -173 3 -3 58 -3 57 -59 0 -60 0 0 -115 0 -115 -55 0 -55 0
0 55 0 54 -57 3 -58 3 -5 115 -5 115 -57 3 -58 3 0 54 0 55 -55 0 -55 0 0 -55
0 -55 55 0 55 0 0 -60 0 -60 -55 0 -54 0 -3 58 -3 57 -55 0 -55 0 0 -55 0 -55
58 -3 57 -3 -2 -172 -3 -172 -57 -3 -58 -3 0 115 0 115 -57 3 -58 3 -3 58 -3
57 -114 0 -114 0 -3 -57 -3 -58 -112 -3 -113 -3 0 -54 0 -55 173 -2 172 -3 3
-57 3 -58 115 0 115 0 -3 -57 -3 -58 -172 -3 -173 -2 0 -55 0 -55 173 -2 172
-3 5 -55 5 -55 58 -3 58 -3 -3 -112 -3 -112 -55 -5 -55 -5 -3 -57 -3 -57 -57
-3 -57 -3 -3 -57 -3 -58 -54 0 -55 0 -2 -172 -3 -173 -57 -3 -57 -3 -3 58 -3
58 -55 0 -55 0 0 -55 0 -55 58 -3 57 -3 0 -114 0 -115 115 0 114 0 3 -57 3
-58 58 -3 57 -3 0 -54 c0 -37 -4 -55 -12 -56 -7 0 -33 -1 -58 -2 l-45 -2 0
-55 0 -55 58 -3 57 -3 0 -59 0 -60 -115 0 -114 0 -3 58 -3 57 -57 3 -58 3 0
114 0 115 -60 0 -59 0 -3 118 -3 117 -52 3 -52 3 -3 -58 -3 -58 -57 -3 -58 -3
0 115 0 115 -57 3 -58 3 -3 58 -3 57 -229 0 -229 0 -3 113 -3 112 -55 5 -55 5
-5 55 -5 55 -58 3 -57 3 0 -61 0 -60 60 0 60 0 0 -230 0 -230 173 -2 172 -3 3
-57 3 -58 -115 0 -115 0 -3 -57 -3 -58 -58 -3 -58 -3 3 -57 3 -57 85 0 c142
-1 140 -2 140 61 l0 53 58 3 57 3 3 58 3 57 174 0 175 0 0 -60 0 -59 -57 -3
-58 -3 -3 -52 c-3 -46 -6 -53 -25 -55 -12 -1 -29 -2 -37 -4 -8 -1 -23 -2 -32
-3 -15 -1 -18 -11 -18 -56 l0 -55 -60 0 -59 0 -3 58 -3 57 -55 0 -55 0 -3 -57
-3 -58 -114 0 -115 0 0 58 0 58 -58 0 -57 -1 0 -55 0 -55 58 -3 58 -3 -3 -57
-3 -57 -112 -3 -113 -3 0 -54 c0 -37 4 -55 13 -56 6 0 57 -1 112 -2 l100 -2 3
-57 3 -57 -58 -3 -58 -3 0 -55 0 -55 57 -3 57 -3 3 -56 3 -56 55 0 55 0 3 57
3 56 -61 0 -60 0 0 60 0 59 58 3 57 3 3 112 3 113 172 2 172 3 3 58 3 57 54 0
55 0 0 -175 0 -175 -55 0 -54 0 -3 58 c-3 51 -5 57 -27 60 -13 2 -39 1 -57 -3
-34 -6 -34 -7 -34 -60 l0 -54 -57 -3 -58 -3 0 -55 0 -55 58 -3 57 -3 0 61 0
60 61 0 61 0 -4 -60 -3 -61 115 3 115 3 5 55 5 55 55 5 55 5 5 55 5 55 40 -1
c22 -1 45 -2 52 -3 7 -1 13 -22 15 -53 l3 -53 58 -3 57 -3 0 55 c0 62 8 68 80
63 l35 -3 3 -57 3 -57 54 0 55 0 0 55 c0 45 3 55 18 56 25 2 86 7 95 8 4 1 7
26 7 56 l0 54 58 3 57 3 5 115 5 115 50 0 50 0 5 115 5 115 172 3 172 2 3 -57
3 -58 55 0 55 0 5 55 5 55 55 0 55 0 3 -112 c3 -125 7 -132 78 -119 l33 7 3
112 3 112 115 0 115 0 3 -57 3 -58 -61 0 -60 0 0 -55 0 -54 -57 -3 -58 -3 0
-55 0 -55 171 -3 171 -2 6 -45 c10 -67 3 -75 -59 -75 l-54 0 0 -55 c0 -30 3
-55 8 -56 4 0 28 -1 55 -2 35 -1 47 -5 48 -16 5 -63 6 -77 7 -88 1 -9 20 -13
57 -13 l54 0 3 -57 3 -58 58 -3 57 -3 0 -54 c0 -30 -1 -55 -2 -56 -17 -5 -195
-9 -212 -5 -18 4 -23 13 -24 38 -1 86 12 78 -117 78 l-115 0 0 -55 c0 -58 0
-58 -58 -55 -56 3 -62 -10 -62 -131 l0 -109 -55 0 -56 0 3 -57 3 -58 231 0
231 0 0 -105 c1 -58 1 -111 2 -117 1 -9 19 -13 56 -13 l55 0 0 -55 0 -55 -55
0 c-60 0 -56 5 -59 -80 l-1 -35 55 -5 55 -5 0 -115 0 -115 -53 -5 -53 -5 -1
-160 c0 -88 0 -166 1 -172 1 -9 19 -13 56 -13 l55 0 0 -55 0 -55 115 0 c85 0
115 -3 116 -12 1 -7 2 -33 3 -58 l1 -45 58 -3 58 -3 -3 -57 -3 -57 -55 0 c-53
0 -55 1 -52 25 2 14 0 40 -3 58 -6 32 -7 32 -61 32 l-55 0 3 -57 3 -58 55 -5
c55 -5 55 -5 56 -40 3 -77 -14 -70 173 -70 l169 0 4 -42 c7 -72 3 -78 -58 -78
l-54 0 0 -60 0 -60 55 0 c30 0 55 3 56 8 0 4 2 27 4 52 1 25 3 48 4 53 0 4 26
7 56 7 l55 0 0 60 0 60 235 0 235 0 0 55 0 54 57 3 57 3 -1 96 c-3 137 -2 139
63 139 l54 0 0 55 0 55 60 0 60 0 -2 -173 -3 -172 -57 -3 -58 -3 0 -54 0 -55
349 0 349 0 3 -37 c8 -77 4 -83 -57 -83 l-54 0 0 -60 0 -60 -175 0 -174 0 -3
57 -3 58 -57 3 -58 3 0 -115 0 -115 -57 -3 -58 -3 -3 -58 -3 -57 -114 0 -115
0 0 60 0 60 115 0 115 0 0 55 0 55 -115 0 -115 0 0 -55 0 -55 -60 0 -60 0 0
115 0 115 -115 0 -114 0 -3 -58 -3 -57 -55 -5 -55 -5 -3 -52 -3 -52 58 -3 58
-3 3 -57 3 -58 174 0 175 0 0 -115 0 -116 58 3 57 3 3 53 3 52 55 0 54 0 0
-175 0 -175 -55 0 c-45 0 -55 -3 -56 -17 -4 -83 -3 -98 9 -97 6 1 32 2 57 3
l45 1 0 55 0 55 60 0 60 0 2 -173 3 -172 55 0 55 0 5 115 5 115 110 0 110 0 3
-58 3 -58 57 3 57 3 3 113 3 112 54 0 55 0 0 60 0 60 -55 0 -55 0 0 -60 0 -60
-235 0 -235 0 0 60 0 59 58 3 57 3 3 58 3 57 54 0 55 0 0 55 0 55 110 0 c61 0
113 0 118 0 4 0 8 -25 10 -55 l3 -55 114 0 115 0 0 55 0 55 175 0 175 0 0 -55
0 -55 175 0 175 0 0 55 0 54 -112 3 -113 3 -3 58 -3 57 56 0 55 0 0 60 0 60
-55 0 -55 0 0 115 0 115 55 0 54 0 3 -57 3 -58 55 0 55 0 5 55 5 55 55 5 55 5
0 55 0 55 -57 3 -58 3 0 55 0 55 -57 -3 -58 -3 -3 -52 -3 -53 -55 0 -54 0 0
55 0 55 -60 0 -60 0 0 60 0 60 -60 0 -60 0 0 60 0 60 -55 0 -55 0 0 115 0 114
113 3 112 3 3 58 3 57 174 0 175 0 0 55 0 54 58 3 57 3 3 58 3 57 54 0 55 0 0
60 0 60 -55 0 -54 0 -3 58 -3 57 -58 3 -58 3 3 52 3 52 58 3 57 3 0 59 0 60
-60 0 -59 0 -3 58 c-2 38 -7 57 -15 56 -7 -1 -164 -2 -348 -2 l-335 -2 0 -55
0 -55 -60 0 -60 0 0 54 0 55 -52 3 -53 3 -5 55 -5 55 -57 3 -58 3 0 -116 0
-115 115 0 115 0 0 -60 0 -60 -55 0 -55 0 0 -55 c0 -30 -3 -55 -7 -56 -5 -1
-30 -2 -58 -3 l-50 -1 -3 -57 -3 -58 61 0 60 0 0 61 0 61 113 -4 112 -3 3 118
3 118 57 -3 57 -3 3 -112 c2 -86 0 -113 -10 -114 -7 0 -34 0 -60 1 l-48 1 0
-60 0 -60 -57 -3 -58 -3 -3 -58 -3 -57 -287 2 -287 3 0 55 0 55 55 5 55 5 3
113 3 112 54 0 55 0 0 60 0 60 -115 0 -115 0 0 55 c0 30 3 55 8 55 4 1 54 2
112 3 l105 2 3 58 3 57 -115 0 -115 0 -3 58 -3 57 -55 0 -55 0 0 -55 0 -55 58
-3 58 -3 -3 -57 -3 -57 -637 -2 -638 -3 -1 23 c-1 12 -1 28 1 36 1 7 -1 24 -4
37 -6 24 -9 24 -122 24 l-115 0 3 58 3 57 55 5 55 5 3 57 3 57 47 -3 c66 -3
73 -9 70 -64 l-3 -47 55 -5 55 -5 5 -55 5 -55 55 0 55 0 5 115 5 115 110 0
110 0 3 -57 3 -57 -58 -3 -58 -3 -3 -35 c-6 -70 2 -80 63 -80 l55 0 0 60 0 60
60 0 59 0 3 -57 3 -58 113 -3 112 -3 0 61 0 60 -115 0 -115 0 0 54 c0 49 2 54
26 60 47 12 422 6 431 -7 5 -7 10 -33 11 -59 l3 -47 -58 -3 -58 -3 0 -55 0
-55 55 0 55 0 0 55 0 55 57 3 57 3 3 57 3 57 55 0 55 0 3 57 3 57 57 3 57 3 5
115 5 115 90 3 c142 5 134 11 137 -121 l3 -112 55 -5 55 -5 5 -55 5 -55 50 0
c49 0 50 0 55 35 11 71 4 80 -59 80 l-56 0 3 115 c4 135 -4 129 138 123 l89
-3 3 -58 3 -58 57 3 57 3 3 112 3 112 -118 3 -118 3 -3 58 -3 57 -54 0 -54 0
-3 -57 -3 -58 -232 -3 -233 -2 0 59 0 60 58 3 57 3 0 55 0 55 -55 0 -55 1 -3
57 -3 57 -59 0 -60 0 0 60 0 59 -57 3 -58 3 -1 170 0 170 -58 3 -57 3 3 57 3
57 55 5 c34 3 55 10 56 18 1 6 2 30 3 52 l1 40 55 0 55 0 0 60 0 59 -57 3 -57
3 -2 50 c0 28 -2 54 -3 58 0 4 -25 7 -53 5 l-53 -3 -5 -115 -5 -115 -112 -3
c-62 -1 -113 1 -113 5 -1 22 -2 210 -1 221 1 8 19 12 56 12 l54 0 3 56 3 56
114 1 113 2 1 55 1 55 -117 3 -117 3 0 174 0 174 117 3 117 3 0 55 0 55 -117
3 -117 3 0 54 0 54 58 3 57 3 3 58 3 58 -58 -3 -58 -3 -3 -58 -3 -58 -57 3
-57 3 0 55 0 55 -57 3 -58 3 0 59 0 60 115 0 115 0 0 55 0 55 -55 0 c-30 0
-55 5 -56 10 0 6 -1 28 -1 50 0 22 1 45 1 50 1 6 26 10 56 10 l55 0 0 60 0 60
-55 0 c-58 0 -58 -1 -57 58 1 65 -5 63 180 62 l168 -2 2 -59 1 -59 -60 0 -60
0 3 -117 3 -118 53 -3 c37 -2 52 1 54 10 0 7 2 60 2 118 l1 105 58 3 57 3 0
54 c0 59 1 59 -67 57 -39 -2 -47 10 -48 68 l0 45 -172 3 -171 2 -4 48 c-6 68
-3 72 59 72 l54 0 -3 58 -3 57 -110 1 -110 2 -3 56 -3 56 -59 0 -60 0 0 -55z
m120 -820 l0 -55 -60 0 -61 0 3 -57 3 -58 58 -3 58 -3 -3 -57 -3 -57 -57 -3
-58 -3 0 -54 0 -55 175 0 175 0 0 -60 0 -60 -55 0 c-37 0 -55 -4 -56 -12 0 -7
-1 -33 -2 -58 l-2 -45 -115 0 -115 0 -3 118 -3 117 -53 0 -54 0 -7 55 c-7 59
-6 220 2 268 4 26 7 27 59 27 l54 0 0 55 0 55 60 0 60 0 0 -55z m-700 -350 l0
-55 230 0 c127 0 230 -3 231 -7 0 -5 1 -57 1 -118 l2 -110 -117 -3 -117 -3 0
-54 0 -55 233 -2 232 -3 3 -117 3 -118 48 0 c57 0 70 12 66 59 -5 55 1 61 62
61 l54 0 -3 -57 -3 -58 -56 0 -56 0 2 -45 c2 -67 -1 -70 -61 -70 l-54 0 0
-175 0 -174 113 -3 112 -3 3 -57 3 -58 59 0 60 0 0 -115 0 -115 -115 0 c-128
0 -124 -4 -116 98 1 8 19 12 56 12 l55 0 0 60 0 60 -115 0 -114 0 -3 -57 -3
-58 -55 0 -55 0 -3 58 -3 57 -54 0 c-53 0 -54 0 -60 33 -8 40 -4 69 10 79 6 4
31 8 58 8 l47 0 0 55 0 55 -54 0 c-58 0 -66 7 -66 60 0 53 8 60 66 60 l54 0 0
60 0 59 -57 3 -58 3 0 50 0 50 57 3 57 3 3 -53 3 -53 58 -3 57 -3 0 55 0 55
-57 3 -58 3 -3 58 -3 57 -349 0 -350 0 0 -350 0 -350 -115 0 -115 0 0 -60 0
-59 58 -3 57 -3 3 -52 3 -53 -235 0 -236 0 0 55 0 55 -60 0 -60 0 0 -55 0 -55
-175 0 -175 0 0 55 0 54 58 3 57 3 0 55 0 55 -117 3 -118 3 0 -61 0 -60 -55 0
-55 0 0 60 0 61 -57 -3 -58 -3 -3 -57 -3 -57 58 -3 58 -3 0 -110 0 -110 -117
-3 -118 -3 0 61 0 60 -55 0 -55 0 0 55 0 55 55 0 55 0 0 175 0 175 60 0 60 0
0 60 0 60 115 0 114 0 3 58 3 57 118 3 117 3 0 114 0 115 -60 0 -59 0 -3 -57
-3 -58 -55 0 -55 0 -3 58 -3 57 -55 0 -55 0 3 58 3 57 52 3 52 3 3 -58 3 -58
58 -3 57 -3 0 115 0 115 58 3 57 3 3 58 3 57 54 0 55 0 0 -114 0 -115 -52 -3
-53 -3 -3 -57 -3 -58 56 0 55 0 0 38 c0 75 6 82 66 82 l54 0 0 55 0 55 60 0
60 0 0 -55 0 -55 -60 0 -61 0 3 -57 3 -58 55 -5 55 -5 5 -55 5 -55 53 -3 52
-3 0 -55 0 -54 -55 0 -55 0 0 55 0 55 -60 0 -60 0 2 -172 3 -173 115 -3 116
-3 -1 58 0 58 58 3 57 3 0 114 0 114 -57 3 c-58 3 -58 3 -61 37 -2 19 -1 45 3
58 5 23 7 24 118 21 l112 -3 5 -55 5 -55 47 -3 c55 -4 72 15 66 76 l-3 37 57
3 57 3 3 57 3 57 58 3 57 3 0 54 0 55 115 0 115 0 0 60 0 60 -172 2 -173 3 -3
113 -3 112 61 0 60 0 0 -55z m-1172 -118 l3 -58 -58 3 -58 3 -3 44 c-5 67 0
72 60 69 l53 -3 3 -58z m467 3 l0 -55 -55 0 -55 0 -3 44 c-5 67 0 72 60 69
l53 -3 0 -55z m467 -85 c3 -14 5 -64 4 -113 l-1 -87 -57 -3 -58 -3 0 56 0 55
-60 0 -60 0 0 -55 0 -56 -57 3 -58 3 0 50 0 50 58 3 57 3 0 59 0 60 114 0
c113 0 114 0 118 -25z m586 -617 l-3 -173 -170 0 -170 0 -3 173 -2 172 175 0
175 0 -2 -172z m-120 -350 l3 -58 -116 0 -115 0 0 53 c0 30 3 57 7 61 4 3 54
5 112 4 l106 -3 3 -57z m-2678 -233 l0 -55 -60 0 -60 0 0 55 0 55 60 0 60 0 0
-55z m2680 0 l0 -54 -57 -3 -58 -3 -1 -45 c-1 -25 -2 -51 -3 -57 -1 -9 -19
-13 -56 -13 l-56 0 3 -57 3 -58 55 -5 55 -5 0 -50 0 -50 50 -6 c28 -3 53 -4
58 -2 4 2 7 29 7 59 l0 54 60 0 60 0 0 60 0 60 54 0 54 0 3 -37 c8 -77 4 -83
-57 -83 l-54 0 0 -55 c0 -37 -4 -55 -12 -56 -7 0 -34 -1 -60 -1 l-48 0 0 -59
0 -59 60 0 59 0 3 58 3 57 52 3 c50 3 53 4 58 35 4 18 6 37 5 42 -7 33 1 35
115 35 l116 0 -3 58 -3 57 -55 5 -55 5 -3 58 -3 57 -114 0 -115 0 0 55 0 55
115 0 115 0 0 -55 0 -54 118 -3 117 -3 2 -50 c1 -27 2 -53 2 -57 1 -5 79 -8
175 -8 l174 0 -3 -41 c-5 -72 0 -79 61 -79 l54 0 0 -55 c0 -50 -2 -55 -22 -56
-34 -2 -82 2 -87 7 -3 2 -5 27 -4 54 l0 50 -58 0 -59 0 0 -115 0 -115 115 0
114 0 3 57 3 57 58 1 57 0 0 -57 0 -58 -60 0 -60 0 0 -60 0 -60 60 0 60 0 0
-175 0 -175 -290 0 c-225 0 -290 3 -291 13 -1 6 -3 53 -4 102 -1 50 -3 97 -4
105 -1 11 -15 15 -56 16 l-54 0 -3 -115 -3 -116 -115 0 -115 0 -1 45 c-1 67 2
70 62 70 l54 0 0 61 0 61 48 -2 c74 -4 72 -5 72 55 l0 55 -60 0 -60 0 0 -55
c0 -30 -3 -55 -7 -56 -96 -14 -111 -4 -109 66 l1 40 58 3 57 3 0 59 0 60 -115
0 -115 0 -2 -232 -3 -233 -115 0 -115 0 -1 113 -1 112 26 1 c14 1 40 2 56 3
l30 1 3 117 3 118 -173 2 -173 3 -3 172 -2 172 -57 3 -57 3 -1 55 0 55 55 0
55 0 3 -57 3 -58 59 0 60 0 0 115 0 115 115 0 115 0 0 -55z m-2220 -349 l0
-53 -52 -7 c-67 -8 -142 -8 -162 0 -12 5 -16 20 -16 60 l0 54 115 0 115 0 0
-54z m1754 19 c-4 -77 -1 -73 -49 -77 -24 -2 -49 -2 -55 0 -5 2 -10 28 -10 58
l0 55 58 -3 c56 -3 57 -3 56 -33z m-1754 -255 l0 -60 -55 0 -55 0 0 60 0 60
55 0 55 0 0 -60z m1753 -581 l1 -54 -57 -3 -57 -3 0 54 c0 29 2 56 4 58 3 2
28 4 56 3 l52 0 1 -55z m115 -236 l-3 -58 -43 -3 c-58 -4 -70 8 -67 66 2 26 3
48 4 50 1 1 26 2 56 2 l56 0 -3 -57z m470 -350 l2 -173 -175 0 -175 0 0 175 0
175 173 -2 172 -3 3 -172z m347 117 l0 -55 -55 -5 -55 -5 -3 -112 -3 -112 58
-3 58 -3 3 -57 3 -58 114 0 114 0 3 -57 3 -58 55 0 55 0 3 57 3 57 57 3 c54 3
57 4 54 27 -2 13 -1 39 3 58 l6 34 52 -3 52 -3 5 -115 5 -115 58 -3 58 -3 -3
-112 -3 -112 -57 -3 -58 -3 0 -60 0 -60 -50 2 c-27 2 -53 0 -56 -4 -4 -4 -7
-28 -8 -54 l-1 -48 -57 -3 -57 -3 -3 -117 -3 -117 -232 -3 -233 -2 0 -56 0
-55 -57 3 -58 3 -1 35 c-1 19 -2 70 -3 113 l-1 77 -55 0 -55 0 0 115 0 114
-117 3 -118 3 -1 45 c-1 25 -2 51 -3 58 -1 8 -19 12 -56 12 l-54 0 -3 -57 -3
-58 -55 0 -55 0 0 115 0 115 109 3 c80 2 111 -1 117 -10 4 -7 6 -34 5 -61 l-4
-48 117 3 116 3 0 55 0 55 -58 3 -58 3 3 112 3 112 55 0 55 0 2 -114 1 -115
56 3 c41 2 56 -1 56 -11 1 -7 2 -85 3 -173 l2 -160 58 -3 57 -3 0 56 0 55 175
0 175 0 0 -55 0 -55 60 0 60 0 0 55 0 55 58 0 57 0 -2 172 -2 173 -55 3 -55 3
-3 -113 -3 -113 -112 -3 c-87 -2 -113 0 -114 10 0 7 -1 58 -2 113 l-2 100 -57
3 -58 3 0 -56 0 -55 -60 0 -60 0 0 55 0 55 -55 0 c-30 0 -56 3 -56 8 -5 22 -5
89 -1 100 2 7 24 12 58 12 l54 0 0 60 0 59 -57 3 -57 3 -4 148 c-2 81 -1 159
2 172 l7 26 112 -3 112 -3 0 -55z m471 20 c3 -86 -1 -80 59 -80 l54 0 3 58 3
57 58 3 58 3 -3 -58 -3 -58 -57 -3 -57 -3 -3 -56 -3 -56 -95 2 c-127 3 -130 1
-130 -65 l0 -55 -116 3 -116 3 -1 110 -1 110 57 3 57 3 0 53 c0 29 3 56 7 60
4 3 57 5 117 4 l111 -3 1 -35z m1514 -135 l0 -175 -172 2 -173 3 -3 160 c-1
87 0 165 2 172 4 10 46 13 176 13 l170 0 0 -175z m-462 -237 l3 -58 54 0 54 0
3 -57 3 -58 58 -3 57 -3 0 -54 0 -55 -175 0 -174 0 -3 -117 -3 -118 -52 -3
c-32 -2 -54 1 -54 7 -1 6 -3 16 -4 21 -1 6 -3 28 -4 50 l-1 40 -55 0 -56 0 3
-57 3 -58 55 -5 c30 -3 54 -8 53 -12 -2 -5 -3 -28 -3 -53 l0 -45 -55 0 -55 0
0 -60 0 -60 230 0 229 0 3 -57 3 -58 58 -3 58 -3 -3 -112 -3 -112 -112 -3
-113 -3 0 116 0 115 -60 0 -60 0 0 -55 0 -55 -60 0 -60 0 0 55 0 55 -55 0 -55
0 0 60 0 60 -175 0 -175 0 0 60 0 60 115 0 115 0 0 55 0 54 -57 3 -58 3 -3 58
-3 57 -54 0 -55 0 0 60 0 60 55 0 55 0 0 55 0 55 60 0 60 0 0 -55 0 -55 175 0
175 0 0 55 0 55 -44 0 c-70 0 -76 5 -76 66 l0 53 58 3 57 3 3 58 3 58 57 -3
57 -3 3 -57z m702 2 l0 -60 -60 0 -60 0 0 -60 0 -61 -112 3 -113 3 -3 58 -3
57 116 0 115 0 0 53 c0 30 3 57 7 60 3 4 30 7 60 7 l53 0 0 -60z m-2809 -87
c0 -16 2 -36 4 -47 7 -38 -5 -47 -59 -44 l-51 3 -3 58 -3 57 56 0 c53 0 55 -1
56 -27z m2339 -1198 l0 -54 58 -3 57 -3 3 -57 3 -58 -61 0 -60 0 0 60 0 60
-172 -2 -173 -3 -3 -57 -3 -58 -59 0 -59 0 -3 -57 -3 -58 -52 -3 -53 -3 0 60
0 61 -235 0 -236 0 3 -57 3 -58 55 -5 55 -5 3 -52 3 -53 -60 0 -61 0 0 55 0
54 -57 3 -58 3 -3 58 -3 57 61 0 60 0 0 60 0 60 235 0 235 0 0 55 0 55 290 0
290 0 0 -55z"/>
<path d="M4388 5623 l-3 -58 -55 -5 -55 -5 -5 -55 -5 -55 -57 -3 -58 -3 0 -54
0 -54 110 -3 c61 -2 115 -1 120 0 6 2 10 28 10 58 l0 54 55 0 55 0 0 120 0
120 -55 0 -54 0 -3 -57z"/>
<path d="M5097 5673 c-4 -3 -7 -30 -7 -60 l0 -53 -60 0 -60 0 0 -60 0 -59 -57
-3 -58 -3 0 -50 0 -50 55 -5 55 -5 3 -57 3 -58 -116 0 -115 0 0 -60 0 -61 113
3 112 3 3 58 3 57 60 0 60 0 -3 58 -3 57 -57 3 -58 3 0 54 0 54 58 3 57 3 3
58 3 57 53 0 c63 0 70 10 60 77 l-6 43 -47 0 c-26 0 -51 -3 -54 -7z"/>
<path d="M3920 5386 l0 -55 58 -3 57 -3 3 -57 3 -58 55 0 55 0 -3 58 -3 57
-54 1 -54 1 -1 54 -1 54 -57 3 -58 3 0 -55z"/>
<path d="M4505 5317 c-3 -7 -4 -60 -3 -118 l3 -104 58 -3 58 -3 -3 118 -3 118
-53 3 c-37 2 -54 -1 -57 -11z"/>
<path d="M6027 5323 c-4 -3 -7 -30 -7 -60 l0 -53 60 0 60 0 0 60 0 60 -53 0
c-30 0 -57 -3 -60 -7z"/>
<path d="M3800 5035 l0 -55 60 0 60 0 0 55 0 55 -60 0 -60 0 0 -55z"/>
<path d="M5557 5673 c-3 -7 -3 -32 2 -105 1 -5 26 -8 56 -8 l56 0 -3 58 -3 57
-52 3 c-28 2 -53 -1 -56 -5z"/>
<path d="M6140 4685 c0 -45 -3 -55 -17 -56 -10 -1 -36 -2 -58 -3 l-40 -2 -3
-57 -3 -56 58 -3 58 -3 3 -57 3 -58 114 0 115 0 0 -55 c0 -30 3 -56 8 -56 4
-1 30 -2 57 -3 l50 -2 3 -57 3 -58 57 3 57 3 1 48 c1 27 5 51 8 54 3 3 25 7
48 9 24 1 46 3 51 3 4 1 7 26 7 56 l0 55 -175 0 -175 0 0 60 0 59 -56 3 -55 3
-2 110 -2 110 -57 3 -58 3 0 -56z"/>
<path d="M5559 3338 c-5 -18 -2 -101 5 -105 5 -3 29 -6 55 -7 l46 -1 3 58 3
57 -56 0 c-30 0 -55 -1 -56 -2z"/>
<path d="M6020 2930 l0 -60 60 0 60 0 0 60 0 60 -60 0 -60 0 0 -60z"/>
<path d="M6022 2353 l3 -58 115 0 115 0 3 34 c2 19 1 44 -2 57 -6 23 -9 24
-122 24 l-115 0 3 -57z"/>
<path d="M7890 3285 c0 -30 3 -55 8 -56 33 -5 94 -4 103 1 6 4 9 29 7 56 l-3
49 -57 3 -58 3 0 -56z"/>
<path d="M7308 1693 c-2 -9 -1 -36 1 -60 l3 -43 53 0 53 0 4 51 c1 27 -1 54
-6 60 -6 5 -31 9 -57 9 -36 0 -48 -4 -51 -17z"/>
<path d="M6503 7543 c-8 -3 -13 -25 -13 -59 l0 -55 58 3 57 3 2 58 2 57 -47
-1 c-26 0 -53 -3 -59 -6z"/>
<path d="M5322 7373 l3 -58 58 -3 58 -3 -3 58 -3 58 -58 3 -58 3 3 -58z"/>
<path d="M2640 7020 l0 -60 115 0 115 0 0 60 0 60 -115 0 -115 0 0 -60z"/>
<path d="M4277 7074 c-4 -4 -7 -32 -7 -61 l0 -54 58 3 57 3 0 55 0 55 -50 3
c-28 2 -54 0 -58 -4z"/>
<path d="M7192 6903 l3 -58 55 0 55 0 0 55 0 55 -58 3 -58 3 3 -58z"/>
<path d="M7540 6901 l0 -60 -57 -3 -58 -3 -3 -52 -3 -53 -289 0 -289 0 -3
-117 -3 -118 -57 -3 -58 -3 0 -114 0 -115 -55 0 c-60 0 -57 4 -59 -75 l-1 -40
-57 -3 -58 -3 0 -55 0 -55 58 3 57 3 1 35 c2 73 -1 70 59 70 l55 0 0 60 0 60
60 0 59 0 3 58 3 57 55 5 55 5 3 113 3 112 114 0 115 0 0 -60 0 -60 -60 0 -60
0 0 -55 0 -55 60 0 60 0 0 55 0 54 58 3 57 3 3 58 3 57 54 0 55 0 0 60 0 60
60 0 60 0 0 55 0 54 58 3 57 3 0 55 0 55 -57 3 -58 3 0 -60z"/>
<path d="M2640 6785 l0 -55 55 0 55 0 0 55 0 55 -55 0 -55 0 0 -55z"/>
<path d="M3222 6728 l3 -113 113 -3 112 -3 0 116 0 115 -115 0 -116 0 3 -112z"/>
<path d="M4390 6670 l0 -60 53 0 c30 0 56 2 58 4 2 2 2 29 1 60 l-4 56 -54 0
-54 0 0 -60z"/>
<path d="M6609 6720 c-1 -5 -1 -19 -1 -30 0 -84 -3 -80 57 -80 l55 0 0 60 0
60 -55 0 c-30 0 -55 -4 -56 -10z"/>
<path d="M2057 6254 c-4 -4 -7 -56 -7 -116 l0 -108 60 0 60 0 0 55 0 54 58 3
57 3 0 55 0 55 -111 3 c-60 1 -113 -1 -117 -4z"/>
<path d="M6724 6016 c-3 -7 -4 -33 -2 -57 l3 -44 115 0 115 0 3 58 3 57 -116
0 c-89 0 -117 -3 -121 -14z"/>
<path d="M8240 5970 l0 -61 58 3 57 3 3 58 3 57 -61 0 -60 0 0 -60z"/>
<path d="M1820 5856 c0 -59 7 -66 65 -66 49 0 57 19 46 113 -1 4 -26 7 -56 7
l-55 0 0 -54z"/>
<path d="M7310 5850 l0 -60 55 0 55 0 0 60 0 60 -55 0 -55 0 0 -60z"/>
<path d="M1702 5623 l3 -58 58 -3 58 -3 -3 58 -3 58 -58 3 -58 3 3 -58z"/>
<path d="M1465 5503 l0 -58 -57 -3 -58 -3 0 -54 0 -55 -49 0 c-58 0 -66 -8
-66 -70 l0 -45 -57 -3 -58 -3 0 -59 0 -60 -60 0 -60 0 0 -55 0 -54 -57 -3 -58
-3 0 -55 0 -55 58 -3 57 -3 0 60 0 60 58 3 57 3 3 53 3 52 55 0 c36 0 54 4 55
13 1 6 2 32 3 57 l1 45 118 3 117 3 0 53 c0 60 6 66 71 66 30 0 39 4 39 18 1
9 1 60 2 112 l1 95 -59 3 -59 3 0 -58z"/>
<path d="M6840 5500 l0 -61 58 3 57 3 0 55 0 55 -57 3 -58 3 0 -61z"/>
<path d="M8362 5153 l3 -58 49 -3 c27 -2 52 1 55 6 3 6 4 33 3 61 l-4 51 -54
0 -55 0 3 -57z"/>
<path d="M7190 4975 l0 -115 114 0 114 0 3 -37 c8 -77 4 -83 -57 -83 l-55 0 3
-57 3 -58 110 0 110 0 3 -57 3 -58 59 0 60 0 0 175 0 175 54 0 54 0 4 60 3 60
-57 0 -58 0 0 -60 0 -60 -120 0 -120 0 0 60 0 60 -55 0 -55 0 0 55 0 55 -60 0
-60 0 0 -115z"/>
<path d="M1237 4974 c-4 -4 -7 -31 -7 -61 l0 -53 60 0 60 0 0 -60 0 -61 58 3
57 3 0 55 0 55 -57 3 -57 3 -3 57 -3 57 -50 3 c-28 2 -54 0 -58 -4z"/>
<path d="M7897 4973 c-4 -3 -7 -57 -7 -119 l0 -113 -57 -3 -58 -3 0 -49 c0
-48 1 -50 34 -59 19 -4 45 -6 58 -3 21 6 23 12 23 61 l0 55 60 0 60 0 0 60 0
60 54 0 54 0 4 51 c1 27 -1 54 -6 60 -11 10 -209 13 -219 2z"/>
<path d="M6960 4682 l0 -58 53 1 52 0 3 58 3 57 -56 0 -55 0 0 -58z"/>
<path d="M4152 4570 l3 -55 115 0 115 0 0 54 0 55 -118 0 -118 1 3 -55z"/>
<path d="M8248 4619 c-5 -3 -8 -28 -6 -55 l3 -49 58 -3 58 -3 -3 57 -3 57 -48
1 c-27 0 -53 -2 -59 -5z"/>
<path d="M4618 4453 l-3 -58 -230 -5 -230 -5 -5 -55 -5 -55 -50 0 -50 0 -3
-57 -3 -58 56 0 55 0 0 -60 0 -60 -115 0 -115 0 0 -55 c0 -66 -5 -69 -140 -64
l-90 4 0 -57 0 -57 -57 -3 -58 -3 -3 -57 -3 -58 61 0 60 0 0 60 0 60 115 0
114 0 3 -57 3 -58 55 0 55 0 0 55 0 55 -57 3 -58 3 0 53 c0 37 4 56 14 59 7 3
82 4 165 3 83 -1 155 1 161 4 7 4 10 47 8 116 l-3 109 -58 3 -58 3 3 57 3 57
95 2 c139 4 140 4 140 -62 l0 -55 55 0 55 0 0 55 c0 50 2 55 25 61 14 3 63 4
109 1 46 -3 88 -2 95 2 8 5 11 41 9 117 l-3 109 -57 3 -57 3 -3 -58z"/>
<path d="M4982 4271 c-9 -5 -12 -24 -10 -57 l3 -49 55 0 55 0 3 56 3 56 -48 1
c-26 1 -54 -2 -61 -7z"/>
<path d="M4740 4100 l0 -60 54 0 c34 0 55 5 58 13 4 10 3 67 -1 100 -1 4 -26
7 -56 7 l-55 0 0 -60z"/>
<path d="M6850 3922 c-5 -2 -10 -28 -10 -58 l0 -54 233 2 232 3 3 53 c2 37 -1
52 -10 53 -41 3 -440 3 -448 1z"/>
<path d="M2407 3804 c-4 -4 -7 -31 -7 -61 l0 -53 -55 0 -56 0 3 -57 3 -58 110
0 110 0 0 115 0 115 -50 3 c-28 2 -54 0 -58 -4z"/>
<path d="M7660 3750 l0 -61 113 3 112 3 3 58 3 57 -116 0 -115 0 0 -60z"/>
<path d="M1939 3680 c-4 -50 0 -93 8 -101 6 -6 30 -9 54 -7 l44 3 3 58 3 57
-56 0 c-30 0 -55 -4 -56 -10z"/>
<path d="M2050 3519 l0 -58 -112 -3 -113 -3 -3 -57 -3 -57 57 -3 58 -3 2 -35
c4 -59 -3 -70 -46 -70 -64 0 -70 -6 -70 -66 l0 -53 -57 -3 -58 -3 -3 -57 -3
-57 58 -3 58 -3 0 -55 0 -55 -57 -3 -58 -3 -2 -172 -3 -172 -52 -3 c-42 -2
-53 0 -54 12 -1 9 -3 21 -4 26 -1 6 -3 26 -4 45 l-1 35 -55 0 -56 0 3 -57 3
-58 53 -3 52 -3 2 -40 c0 -21 1 -45 2 -51 1 -9 -19 -15 -54 -18 l-55 -5 -3
-57 -3 -58 55 0 55 0 3 -57 3 -58 55 0 55 0 3 58 3 57 -55 0 c-62 0 -66 6 -63
83 l2 37 117 0 118 0 2 173 3 172 113 3 112 3 0 54 0 55 -55 0 c-61 0 -55 -9
-59 85 l-1 30 233 3 232 2 0 235 0 235 -115 0 -115 0 0 55 c0 30 -3 55 -7 56
-5 0 -32 1 -60 3 l-53 2 0 -57z m122 -236 l3 -57 46 2 c57 4 71 -11 67 -70
l-3 -43 -57 -3 -57 -3 -3 58 -3 58 -40 1 c-79 2 -75 0 -75 52 0 27 3 52 7 55
3 4 30 7 59 7 l53 0 3 -57z"/>
<path d="M2640 3515 l0 -55 55 0 55 0 0 55 0 55 -55 0 -55 0 0 -55z"/>
<path d="M1470 3285 c0 -37 -4 -55 -12 -56 -7 -1 -34 -1 -60 -1 l-48 0 0 -59
0 -59 60 0 60 0 0 60 0 59 53 -2 52 -2 3 58 3 57 -56 0 -55 0 0 -55z"/>
<path d="M770 2815 l0 -55 115 0 115 0 0 55 0 55 -115 0 -115 0 0 -55z"/>
<path d="M4740 2815 l0 -55 55 0 c54 0 55 0 56 30 1 17 2 40 2 53 1 20 -4 22
-56 25 l-57 3 0 -56z"/>
<path d="M2054 2626 c-3 -7 -4 -33 -2 -57 l3 -44 55 0 55 0 3 58 3 57 -56 0
c-38 0 -57 -4 -61 -14z"/>
<path d="M2400 2580 l0 -61 58 3 57 3 0 55 0 55 -57 3 -58 3 0 -61z"/>
<path d="M1939 2398 c0 -7 0 -45 1 -85 1 -39 -2 -87 -5 -107 l-7 -36 -54 0
-54 0 0 -115 0 -115 -60 0 -59 0 -3 58 -3 57 -170 0 -170 0 -3 -57 -3 -58 176
0 175 0 0 -60 0 -61 58 3 57 3 3 58 3 57 54 0 c45 0 55 -3 56 -17 1 -10 3 -27
4 -38 1 -11 2 -30 3 -42 2 -23 3 -23 177 -23 l175 0 0 60 0 60 55 0 55 0 0 61
0 60 -52 -3 -53 -3 -3 -58 -3 -58 -57 3 -57 3 -5 230 -5 230 -112 3 c-87 2
-113 0 -114 -10z m109 -401 l3 -58 -58 3 -58 3 0 50 c-1 28 1 54 3 58 2 4 27
7 55 5 l52 -3 3 -58z"/>
<path d="M1000 2230 l0 -60 -54 0 c-60 0 -66 -6 -66 -70 l0 -39 -52 -3 -53 -3
-3 -57 -3 -58 56 0 c37 0 55 -4 56 -12 0 -7 0 -34 -1 -60 l-1 -48 60 0 61 0 0
60 0 59 -57 3 -58 3 0 55 0 55 58 3 57 3 0 54 0 54 58 3 57 3 0 55 0 55 -57 3
-58 3 0 -61z"/>
<path d="M2752 2003 l3 -58 58 -3 58 -3 -3 58 -3 58 -58 3 -58 3 3 -58z"/>
<path d="M6607 2038 c-3 -13 -4 -34 -2 -48 1 -14 3 -31 4 -37 1 -9 19 -13 56
-13 l56 0 -3 58 -3 57 -51 3 c-47 3 -52 1 -57 -20z"/>
<path d="M1938 1698 c-2 -7 -4 -33 -3 -58 l0 -45 58 -3 58 -3 -3 58 -3 58 -51
3 c-35 2 -53 -1 -56 -10z"/>
<path d="M5440 1415 l0 -55 115 0 115 0 0 55 0 55 -115 0 -115 0 0 -55z"/>
<path d="M3222 7953 l3 -58 55 0 55 0 3 58 3 57 -61 0 -61 0 3 -57z"/>
<path d="M5559 8008 c-1 -5 -2 -73 0 -94 1 -20 20 -23 99 -15 8 1 12 19 12 56
l0 55 -55 0 c-30 0 -55 -1 -56 -2z"/>
<path d="M7190 7956 c0 -60 4 -63 75 -62 l40 1 3 58 3 57 -61 0 -60 0 0 -54z"/>
<path d="M7310 7720 l0 -60 55 0 55 0 0 60 0 60 -55 0 -55 0 0 -60z"/>
<path d="M885 5657 c-4 -13 -5 -39 -3 -58 3 -34 3 -34 61 -37 l58 -3 -3 58 -3
58 -52 3 c-48 3 -53 1 -58 -21z"/>
<path d="M3227 5674 c-4 -4 -7 -32 -7 -61 l0 -54 58 3 57 3 0 55 0 55 -50 3
c-28 2 -54 0 -58 -4z"/>
<path d="M7897 5674 c-4 -4 -7 -32 -7 -61 l0 -54 58 3 57 3 0 55 0 55 -50 3
c-28 2 -54 0 -58 -4z"/>
<path d="M887 3333 c-4 -3 -7 -28 -7 -55 l0 -48 60 0 60 0 0 55 0 55 -53 0
c-30 0 -57 -3 -60 -7z"/>
<path d="M3220 3285 l0 -55 61 0 60 0 -3 53 -3 52 -57 3 -58 3 0 -56z"/>
<path d="M4622 833 l3 -58 58 -3 58 -3 -3 58 -3 58 -58 3 -58 3 3 -58z"/>
<path d="M3227 1003 c-4 -3 -7 -31 -7 -60 l0 -54 58 3 57 3 3 49 c2 32 -1 52
-10 57 -16 10 -92 12 -101 2z"/>
<path d="M5562 990 c-4 -12 -7 -38 -7 -58 l2 -37 57 -3 57 -3 -3 58 -3 58 -48
3 c-41 3 -48 0 -55 -18z"/>
<path d="M7903 1003 c-8 -3 -13 -25 -13 -59 l0 -55 58 3 57 3 3 49 c2 32 -1
52 -10 57 -14 9 -75 11 -95 2z"/>
<path d="M4040 8656 l0 -54 38 -4 c68 -6 72 -3 72 58 l0 54 -55 0 -55 0 0 -54z"/>
<path d="M4504 8696 c-3 -7 -4 -33 -2 -57 l3 -44 45 2 c25 1 51 2 58 2 8 1 12
19 12 56 l0 55 -55 0 c-38 0 -57 -4 -61 -14z"/>
<path d="M6020 8656 l0 -54 48 -4 c68 -6 72 -3 72 58 l0 54 -60 0 -60 0 0 -54z"/>
<path d="M6840 8655 l0 -55 173 -2 172 -3 3 -58 3 -58 57 3 57 3 5 55 5 55 48
3 c53 4 58 -2 61 -70 l1 -43 55 0 55 0 3 113 3 112 -351 0 -350 0 0 -55z"/>
<path d="M7660 8655 l0 -55 55 0 55 0 0 55 0 55 -55 0 -55 0 0 -55z"/>
<path d="M7890 8306 c0 -359 2 -405 16 -410 21 -8 733 -8 773 0 l31 7 0 403 0
404 -410 0 -410 0 0 -404z m695 -1 l0 -290 -287 -3 -288 -2 0 288 c0 159 3
292 7 295 4 4 133 6 287 5 l281 -3 0 -290z"/>
<path d="M8124 8467 c-2 -7 -3 -85 -2 -172 l3 -160 173 -3 172 -2 0 175 0 175
-170 0 c-130 0 -172 -3 -176 -13z"/>
<path d="M1468 8423 l-3 -58 -57 -3 -58 -3 0 -54 0 -55 60 0 60 0 0 58 0 57
54 -3 54 -4 4 57 c1 31 1 59 -1 61 -2 2 -28 4 -57 4 l-53 0 -3 -57z"/>
<path d="M1237 8242 c-1 -4 -3 -29 -2 -57 l0 -50 58 -3 57 -3 0 -114 0 -115
25 -1 c14 -1 40 -2 58 -3 l32 -1 0 115 0 115 -57 3 -57 3 -3 57 -3 57 -52 2
c-29 1 -54 -1 -56 -5z"/>
<path d="M1592 8238 c-13 -13 -16 -65 -6 -92 5 -12 20 -16 61 -16 l54 0 -3 58
-3 57 -45 3 c-26 2 -50 -2 -58 -10z"/>
<path d="M1120 7895 l0 -235 -60 0 -59 0 -3 58 -3 57 -55 0 -55 0 -3 -57 -3
-58 -54 0 -54 0 -3 58 -3 57 -172 3 -173 2 0 -60 0 -60 -60 0 -60 0 0 -55 0
-55 60 0 60 0 0 55 0 55 175 0 175 0 0 -115 0 -114 113 -3 112 -3 0 -55 0 -55
-112 -3 -112 -3 -3 -112 -3 -112 -57 -3 -58 -3 0 229 c0 253 3 242 -63 242
-58 0 -58 3 -55 -241 l3 -224 58 -3 58 -3 -3 -57 -3 -57 -113 -3 -112 -3 0
116 c0 125 1 123 -60 117 -8 -1 -25 1 -38 3 -19 5 -22 12 -22 60 l0 54 58 3
57 3 0 55 0 55 -57 3 -57 3 -3 57 c-3 57 -3 57 -37 60 -19 2 -44 1 -57 -2
l-24 -6 2 -523 3 -522 55 0 55 0 3 233 2 232 60 0 60 0 0 -175 0 -175 55 0 54
0 3 113 3 112 58 3 57 3 0 -56 0 -56 58 3 57 3 3 52 3 52 56 3 56 3 1 55 1 55
115 5 115 5 0 55 0 55 -115 5 -115 5 -1 48 c-2 62 13 70 120 67 124 -4 116 -8
116 55 l0 55 55 0 c37 0 55 4 56 13 1 13 1 87 0 100 -1 4 -26 7 -56 7 l-55 0
0 115 0 115 55 0 c45 0 55 -3 56 -17 0 -10 0 -62 0 -115 l0 -98 59 0 60 0 0
175 0 174 -57 3 -58 3 -2 145 c-1 80 -2 157 -3 173 0 26 -2 27 -55 27 l-55 0
0 -235z m-120 -290 l0 -55 -60 0 -60 0 0 55 0 55 60 0 60 0 0 -55z"/>
<path d="M1584 7646 c-3 -8 -4 -31 -2 -52 l3 -39 58 -3 57 -3 0 56 0 55 -55 0
c-38 0 -57 -4 -61 -14z"/>
<path d="M1470 7370 l0 -60 115 0 115 0 0 60 0 60 -115 0 -115 0 0 -60z"/>
<path d="M1476 7193 c-3 -4 -6 -30 -6 -60 l0 -53 55 0 c37 0 55 4 56 13 3 42
1 89 -5 94 -9 9 -92 14 -100 6z"/>
<path d="M8594 7067 c-3 -8 -4 -34 -2 -58 l3 -44 55 0 55 0 0 55 0 55 -53 3
c-38 2 -54 -1 -58 -11z"/>
<path d="M8247 6954 c-4 -4 -7 -56 -7 -115 l0 -109 173 -2 172 -3 5 -115 5
-115 55 0 55 0 3 172 2 173 -172 2 -173 3 -5 55 -5 55 -50 3 c-28 2 -54 0 -58
-4z"/>
<path d="M880 6801 c0 -65 6 -71 66 -71 l54 0 0 55 0 55 -60 0 -60 0 0 -39z"/>
<path d="M184 6246 c-3 -7 -4 -33 -2 -57 l3 -44 55 0 55 0 3 58 3 57 -56 0
c-38 0 -57 -4 -61 -14z"/>
<path d="M184 5076 c-3 -8 -4 -31 -2 -52 l3 -39 58 -3 57 -3 0 56 0 55 -55 0
c-38 0 -57 -4 -61 -14z"/>
<path d="M193 4273 c-10 -3 -13 -48 -13 -174 0 -93 3 -169 8 -170 4 0 18 -2
32 -4 14 -1 37 0 53 2 25 5 27 9 27 59 l0 53 58 3 57 3 3 58 3 57 54 0 53 0 4
56 c1 31 0 58 -3 59 -8 6 -322 4 -336 -2z"/>
<path d="M537 4033 c-4 -3 -7 -28 -7 -55 0 -52 -3 -50 70 -50 17 0 35 1 40 1
6 1 10 26 10 56 l0 55 -53 0 c-30 0 -57 -3 -60 -7z"/>
<path d="M4154 2747 c-3 -8 -4 -34 -2 -58 l3 -44 58 -3 58 -3 -3 58 -3 58 -53
3 c-38 2 -54 -1 -58 -11z"/>
<path d="M184 1226 c-3 -7 -4 -33 -2 -57 l3 -44 55 0 55 0 3 58 3 57 -56 0
c-38 0 -57 -4 -61 -14z"/>
<path d="M185 998 c-3 -7 -4 -191 -3 -408 l3 -395 408 -3 407 -2 -2 407 -3
408 -403 3 c-317 2 -404 0 -407 -10z m695 -398 l0 -290 -22 -5 c-13 -3 -142
-4 -288 -3 l-265 3 -3 280 c-1 154 0 285 3 292 3 10 69 13 290 13 l285 0 0
-290z"/>
<path d="M420 595 l0 -175 173 2 172 3 0 170 0 170 -172 3 -173 2 0 -175z"/>
<path d="M5792 363 l3 -58 51 -3 51 -3 6 38 c4 21 4 48 1 61 -6 19 -13 22 -61
22 l-54 0 3 -57z"/>
<path d="M7897 414 c-4 -4 -7 -31 -7 -60 l0 -53 -57 -3 -58 -3 0 -50 0 -50 58
-3 57 -3 0 55 0 55 58 3 57 3 0 55 0 55 -50 3 c-28 2 -54 0 -58 -4z"/>
<path d="M2990 245 l0 -55 55 0 55 0 0 55 0 55 -55 0 -55 0 0 -55z"/>
</g>
</svg>
